<svg fill="#000000" xmlns="http://www.w3.org/2000/svg"  viewBox="0 0 80 80" width="80px" height="80px"><path d="M 65.455078 6.0019531 A 1.0001 1.0001 0 0 0 64.794922 6.2929688 L 9.8554688 61.244141 C 7.388371 63.711238 7.388371 67.741887 9.8554688 70.208984 C 12.322679 72.676195 16.354011 72.674564 18.820312 70.207031 C 19.86202 69.166104 20.648124 67.899089 21.117188 66.501953 C 21.536155 65.254894 22.237208 64.122167 23.167969 63.191406 A 1.0001 1.0001 0 0 0 23.201172 63.15625 C 23.201172 63.15625 26.783877 59.233919 28.773438 57.582031 C 41.87762 46.705024 51.208659 39.942831 57.650391 34.859375 C 64.092122 29.775919 67.743546 26.328497 69.189453 21.990234 C 72.418465 12.301097 66.185547 6.2714844 66.185547 6.2714844 A 1.0001 1.0001 0 0 0 65.455078 6.0019531 z M 65.460938 8.4550781 C 66.752358 9.9952539 69.61945 14.376463 67.292969 21.357422 C 66.069876 25.027159 62.793128 28.253518 56.412109 33.289062 C 50.272147 38.13438 41.31401 44.65636 28.933594 54.863281 L 27.712891 53.642578 L 27.800781 53.597656 L 27.958984 52.716797 L 27.347656 52.0625 L 27 52 L 26.382812 52.310547 L 23.998047 49.925781 L 65.460938 8.4550781 z M 62.082031 19.617188 L 61.28125 20.019531 L 61.123047 20.900391 L 61.734375 21.554688 L 62.082031 21.617188 L 62.882812 21.216797 L 63.041016 20.333984 L 62.429688 19.679688 L 62.082031 19.617188 z M 59.986328 23.017578 L 59.183594 23.419922 L 59.027344 24.302734 L 59.638672 24.957031 L 59.986328 25.017578 L 60.787109 24.617188 L 60.945312 23.734375 L 60.332031 23.080078 L 59.986328 23.017578 z M 57.431641 26.095703 L 56.630859 26.496094 L 56.472656 27.378906 L 57.083984 28.033203 L 57.431641 28.095703 L 58.232422 27.693359 L 58.390625 26.8125 L 57.779297 26.15625 L 57.431641 26.095703 z M 54.625 28.943359 L 53.824219 29.345703 L 53.666016 30.226562 L 54.279297 30.880859 L 54.625 30.943359 L 55.425781 30.542969 L 55.583984 29.660156 L 54.972656 29.005859 L 54.625 28.943359 z M 51.582031 31.537109 L 50.78125 31.9375 L 50.623047 32.820312 L 51.234375 33.474609 L 51.582031 33.537109 L 52.382812 33.134766 L 52.541016 32.253906 L 51.929688 31.597656 L 51.582031 31.537109 z M 48.404297 33.964844 L 47.603516 34.367188 L 47.445312 35.248047 L 48.056641 35.902344 L 48.404297 35.964844 L 49.205078 35.564453 L 49.363281 34.681641 L 48.751953 34.027344 L 48.404297 33.964844 z M 45.232422 36.400391 L 44.429688 36.802734 L 44.273438 37.683594 L 44.884766 38.339844 L 45.232422 38.400391 L 46.033203 38 L 46.191406 37.117188 L 45.578125 36.462891 L 45.232422 36.400391 z M 42.107422 38.900391 L 41.306641 39.300781 L 41.148438 40.183594 L 41.761719 40.837891 L 42.107422 40.900391 L 42.908203 40.498047 L 43.066406 39.615234 L 42.455078 38.960938 L 42.107422 38.900391 z M 39.021484 41.443359 L 38.220703 41.845703 L 38.0625 42.726562 L 38.675781 43.382812 L 39.021484 43.443359 L 39.822266 43.042969 L 39.980469 42.160156 L 39.369141 41.505859 L 39.021484 41.443359 z M 35.970703 44.03125 L 35.169922 44.431641 L 35.011719 45.314453 L 35.623047 45.96875 L 35.970703 46.03125 L 36.771484 45.628906 L 36.929688 44.748047 L 36.318359 44.091797 L 35.970703 44.03125 z M 32.951172 46.654297 L 32.150391 47.056641 L 31.992188 47.9375 L 32.605469 48.591797 L 32.951172 48.654297 L 33.753906 48.253906 L 33.910156 47.371094 L 33.298828 46.716797 L 32.951172 46.654297 z M 29.962891 49.3125 L 29.162109 49.714844 L 29.003906 50.595703 L 29.615234 51.25 L 29.962891 51.3125 L 30.763672 50.912109 L 30.921875 50.029297 L 30.310547 49.375 L 29.962891 49.3125 z M 22.583984 51.339844 L 27.384766 56.140625 C 25.129394 58.042262 21.776269 61.753681 21.746094 61.787109 C 20.601283 62.934664 19.738352 64.330267 19.222656 65.865234 C 18.851882 66.969611 18.230001 67.970101 17.40625 68.792969 A 1.0001 1.0001 0 0 0 17.40625 68.794922 C 15.704552 70.497436 12.972321 70.495805 11.269531 68.792969 C 9.5666292 67.090066 9.5666292 64.361105 11.269531 62.658203 L 22.583984 51.339844 z M 14.5 64 A 1.5 1.5 0 0 0 14.5 67 A 1.5 1.5 0 0 0 14.5 64 z"/></svg>