<svg fill="#000000" xmlns="http://www.w3.org/2000/svg"  viewBox="0 0 80 80" width="80px" height="80px"><path d="M 9.0214844 8 A 1.0001 1.0001 0 0 0 8.0507812 9.3164062 L 12.830078 23.652344 A 1.0001 1.0001 0 0 0 13.105469 24.076172 L 31.005859 40.412109 L 25.519531 46.423828 L 18.875 41.763672 A 1.0001 1.0001 0 0 0 18.310547 41.583984 A 1.0001 1.0001 0 0 0 17.607422 41.861328 L 14.378906 44.960938 A 1.0001 1.0001 0 0 0 14.363281 46.390625 L 20.304688 52.332031 L 13.410156 60.980469 C 10.42678 61.043867 8 63.480611 8 66.478516 C 8 69.515897 10.484103 72 13.521484 72 C 16.519389 72 18.956133 69.57322 19.019531 66.589844 L 27.667969 59.695312 L 33.609375 65.636719 A 1.0001 1.0001 0 0 0 35.039062 65.621094 L 38.138672 62.392578 A 1.0001 1.0001 0 0 0 38.236328 61.125 L 33.576172 54.480469 L 40 48.619141 L 46.423828 54.480469 L 41.763672 61.125 A 1.0001 1.0001 0 0 0 41.861328 62.392578 L 44.960938 65.621094 A 1.0001 1.0001 0 0 0 46.390625 65.636719 L 52.332031 59.695312 L 60.976562 66.587891 C 61.000372 67.903793 61.430696 69.226965 62.341797 70.251953 C 63.278565 71.305818 64.721516 72 66.478516 72 C 68.235515 72 69.680414 71.305823 70.617188 70.251953 C 71.55396 69.198084 72 67.830988 72 66.478516 C 72 65.126043 71.55396 63.760901 70.617188 62.707031 C 69.702388 61.677882 68.291204 61.012109 66.589844 60.980469 L 59.695312 52.332031 L 65.636719 46.390625 A 1.0001 1.0001 0 0 0 65.621094 44.960938 L 62.392578 41.861328 A 1.0001 1.0001 0 0 0 61.125 41.763672 L 54.480469 46.423828 L 48.994141 40.412109 L 66.894531 24.076172 A 1.0001 1.0001 0 0 0 67.169922 23.652344 L 71.949219 9.3164062 A 1.0001 1.0001 0 0 0 70.992188 8 A 1.0001 1.0001 0 0 0 70.683594 8.0507812 L 56.347656 12.830078 A 1.0001 1.0001 0 0 0 55.923828 13.105469 L 40 30.554688 L 24.076172 13.105469 A 1.0001 1.0001 0 0 0 23.652344 12.830078 L 9.3164062 8.0507812 A 1.0001 1.0001 0 0 0 9.0214844 8 z M 10.582031 10.582031 L 22.773438 14.644531 L 38.646484 32.039062 L 35.896484 35.052734 L 35.199219 35.402344 L 35.107422 35.917969 L 32.353516 38.933594 L 14.644531 22.773438 L 10.582031 10.582031 z M 69.417969 10.582031 L 65.355469 22.773438 L 39.322266 46.529297 A 1.0002729 1.0002729 0 0 0 39.306641 46.544922 L 32.419922 52.828125 L 30.8125 50.537109 L 30.958984 49.716797 L 30.347656 49.0625 L 30 49 L 29.53125 49.236328 L 27.171875 47.582031 L 57.226562 14.644531 L 69.417969 10.582031 z M 63.941406 15.058594 L 63.140625 15.460938 L 62.982422 16.341797 L 63.59375 16.996094 L 63.941406 17.058594 L 64.742188 16.658203 L 64.900391 15.775391 L 64.287109 15.121094 L 63.941406 15.058594 z M 16.201172 15.201172 L 15.400391 15.601562 L 15.242188 16.484375 L 15.853516 17.138672 L 16.201172 17.201172 L 17.001953 16.798828 L 17.160156 15.917969 L 16.548828 15.263672 L 16.201172 15.201172 z M 61.113281 17.886719 L 60.3125 18.289062 L 60.154297 19.169922 L 60.765625 19.824219 L 61.113281 19.886719 L 61.914062 19.486328 L 62.072266 18.603516 L 61.458984 17.949219 L 61.113281 17.886719 z M 19.029297 18.029297 L 18.228516 18.431641 L 18.070312 19.3125 L 18.681641 19.966797 L 19.029297 20.029297 L 19.830078 19.628906 L 19.988281 18.746094 L 19.376953 18.091797 L 19.029297 18.029297 z M 58.285156 20.714844 L 57.482422 21.117188 L 57.326172 22 L 57.9375 22.654297 L 58.285156 22.714844 L 59.085938 22.314453 L 59.244141 21.431641 L 58.630859 20.777344 L 58.285156 20.714844 z M 21.857422 20.857422 L 21.056641 21.259766 L 20.898438 22.140625 L 21.511719 22.794922 L 21.857422 22.857422 L 22.658203 22.457031 L 22.816406 21.574219 L 22.205078 20.919922 L 21.857422 20.857422 z M 55.455078 23.544922 L 54.654297 23.945312 L 54.496094 24.828125 L 55.109375 25.482422 L 55.455078 25.544922 L 56.257812 25.142578 L 56.414062 24.259766 L 55.802734 23.605469 L 55.455078 23.544922 z M 24.685547 23.685547 L 23.884766 24.087891 L 23.726562 24.970703 L 24.339844 25.625 L 24.685547 25.685547 L 25.488281 25.285156 L 25.644531 24.402344 L 25.033203 23.748047 L 24.685547 23.685547 z M 52.626953 26.373047 L 51.826172 26.773438 L 51.667969 27.65625 L 52.28125 28.310547 L 52.626953 28.373047 L 53.427734 27.970703 L 53.585938 27.089844 L 52.974609 26.435547 L 52.626953 26.373047 z M 27.515625 26.515625 L 26.712891 26.916016 L 26.556641 27.798828 L 27.167969 28.453125 L 27.515625 28.515625 L 28.316406 28.113281 L 28.474609 27.230469 L 27.861328 26.576172 L 27.515625 26.515625 z M 49.798828 29.201172 L 48.998047 29.601562 L 48.839844 30.484375 L 49.451172 31.138672 L 49.798828 31.201172 L 50.599609 30.798828 L 50.757812 29.917969 L 50.146484 29.263672 L 49.798828 29.201172 z M 30.34375 29.34375 L 29.542969 29.744141 L 29.384766 30.626953 L 29.996094 31.28125 L 30.34375 31.34375 L 31.144531 30.941406 L 31.302734 30.060547 L 30.689453 29.404297 L 30.34375 29.34375 z M 46.970703 32.029297 L 46.169922 32.431641 L 46.011719 33.3125 L 46.623047 33.966797 L 46.970703 34.029297 L 47.771484 33.628906 L 47.929688 32.746094 L 47.318359 32.091797 L 46.970703 32.029297 z M 33.171875 32.171875 L 32.371094 32.572266 L 32.212891 33.455078 L 32.824219 34.109375 L 33.171875 34.171875 L 33.972656 33.769531 L 34.130859 32.888672 L 33.517578 32.234375 L 33.171875 32.171875 z M 44.142578 34.857422 L 43.341797 35.259766 L 43.183594 36.140625 L 43.794922 36.794922 L 44.142578 36.857422 L 44.943359 36.457031 L 45.101562 35.574219 L 44.488281 34.919922 L 44.142578 34.857422 z M 41.314453 37.685547 L 40.511719 38.087891 L 40.355469 38.970703 L 40.966797 39.625 L 41.314453 39.685547 L 42.115234 39.285156 L 42.273438 38.402344 L 41.660156 37.748047 L 41.314453 37.685547 z M 38.484375 40.515625 L 37.683594 40.916016 L 37.525391 41.798828 L 38.138672 42.453125 L 38.484375 42.515625 L 39.287109 42.113281 L 39.443359 41.230469 L 38.832031 40.576172 L 38.484375 40.515625 z M 47.517578 41.757812 L 52.830078 47.580078 L 50.494141 49.21875 L 50.347656 49.0625 L 50 49 L 49.199219 49.402344 L 49.041016 50.283203 L 49.228516 50.482422 L 47.582031 52.830078 L 41.484375 47.265625 L 43.839844 45.115234 L 43.996094 45.28125 L 44.34375 45.34375 L 45.144531 44.941406 L 45.302734 44.060547 L 45.160156 43.908203 L 47.517578 41.757812 z M 35.65625 43.34375 L 34.855469 43.744141 L 34.697266 44.626953 L 35.310547 45.28125 L 35.65625 45.34375 L 36.457031 44.941406 L 36.615234 44.060547 L 36.003906 43.404297 L 35.65625 43.34375 z M 18.398438 43.873047 L 25.029297 48.521484 A 1.0002732 1.0002732 0 0 0 25.158203 48.613281 A 1.0002732 1.0002732 0 0 0 25.175781 48.623047 L 28.820312 51.179688 L 31.384766 54.839844 A 1.0002732 1.0002732 0 0 0 31.482422 54.976562 L 36.126953 61.601562 L 34.302734 63.501953 L 16.5 45.699219 L 18.398438 43.873047 z M 61.601562 43.873047 L 63.5 45.699219 L 45.697266 63.501953 L 43.873047 61.601562 L 48.462891 55.056641 A 1.0001 1.0001 0 0 0 48.669922 54.759766 A 1.0001 1.0001 0 0 0 48.671875 54.757812 L 51.181641 51.179688 L 54.761719 48.669922 A 1.0001 1.0001 0 0 0 55.058594 48.460938 L 61.601562 43.873047 z M 32.828125 46.171875 L 32.027344 46.572266 L 31.869141 47.455078 L 32.482422 48.109375 L 32.828125 48.171875 L 33.628906 47.769531 L 33.787109 46.888672 L 33.175781 46.234375 L 32.828125 46.171875 z M 47.171875 46.171875 L 46.371094 46.572266 L 46.212891 47.455078 L 46.824219 48.109375 L 47.171875 48.171875 L 47.972656 47.769531 L 48.130859 46.888672 L 47.517578 46.234375 L 47.171875 46.171875 z M 21.726562 53.753906 L 26.246094 58.273438 L 18.613281 64.357422 C 18.052088 63.020041 16.979959 61.947912 15.642578 61.386719 L 21.726562 53.753906 z M 58.273438 53.753906 L 64.357422 61.386719 C 63.560426 61.69302 62.860565 62.123417 62.341797 62.707031 C 61.908107 63.194933 61.604723 63.760174 61.376953 64.349609 L 53.753906 58.273438 L 58.273438 53.753906 z M 13.521484 62.957031 C 15.478103 62.957031 17.042969 64.521897 17.042969 66.478516 C 17.042969 68.435134 15.478103 70 13.521484 70 C 11.564866 70 10 68.435134 10 66.478516 C 10 64.521897 11.564866 62.957031 13.521484 62.957031 z M 66.478516 62.957031 C 67.735515 62.957031 68.55282 63.393651 69.123047 64.035156 C 69.693274 64.676662 70 65.570488 70 66.478516 C 70 67.386543 69.693274 68.280369 69.123047 68.921875 C 68.55282 69.563381 67.735515 70 66.478516 70 C 65.221516 70 64.406164 69.563381 63.835938 68.921875 C 63.26571 68.280369 62.957031 67.386543 62.957031 66.478516 C 62.957031 65.570488 63.265711 64.676662 63.835938 64.035156 C 64.406164 63.393651 65.221516 62.957031 66.478516 62.957031 z"/></svg>