<svg fill="#000000" xmlns="http://www.w3.org/2000/svg"  viewBox="0 0 80 80" width="80px" height="80px"><path d="M 34 5 A 1.0001 1.0001 0 0 0 33 6 L 33 9.3847656 C 31.754342 10.000719 30.934956 10.964946 30.476562 12.019531 C 29.101117 12.049373 25.631333 12.368823 22.613281 15.236328 C 20.589549 17.158793 19.429862 19.411898 18.777344 21.261719 C 18.451085 22.186629 18.250989 23.012159 18.134766 23.660156 C 18.018543 24.308154 17.960121 24.65164 18.003906 25.097656 L 18 25 L 18 69.332031 A 1.0001 1.0001 0 0 0 18.271484 70.017578 C 18.271484 70.017578 19.790634 71.60197 23.060547 73.078125 C 26.33046 74.55428 31.424089 76.000935 38.777344 76.001953 C 45.331831 76.001953 49.729323 75.465716 52.511719 74.919922 C 55.294115 74.374127 56.550781 73.775391 56.550781 73.775391 A 1.0001 1.0001 0 0 0 57.111328 72.876953 L 57.111328 67.210938 A 1.0001 1.0001 0 0 0 55.669922 66.3125 C 55.669922 66.3125 55.396214 66.427382 55 66.564453 L 55 56.427734 C 55.181333 56.391998 55.429975 56.358238 55.597656 56.322266 C 57.092225 56.001636 58.056207 55.676264 58.671875 55.412109 C 59.287543 55.147955 59.650391 54.863281 59.650391 54.863281 A 1.0001 1.0001 0 0 0 60 54.105469 L 60 51 L 60.285156 51 C 63.995254 51 67 47.899357 67 44.132812 L 67 38.498047 C 67 34.462169 64.5777 30.831089 60.892578 29.367188 L 60.884766 29.363281 L 56.9375 27.355469 L 56.9375 23.908203 A 1.0001 1.0001 0 0 0 56.9375 23.880859 C 56.913521 23.022048 56.704599 18.842322 53.267578 15.480469 C 50.28879 12.566013 46.879733 12.12343 45.529297 12.041016 C 45.072378 10.979632 44.253124 10.00617 43 9.3867188 L 43 6 A 1.0001 1.0001 0 0 0 42 5 L 34 5 z M 35 7 L 41 7 L 41 10 A 1.0001 1.0001 0 0 0 41.589844 10.925781 L 41.582031 10.951172 C 43.404837 11.537158 43.895298 12.828691 43.947266 14.105469 C 43.729565 14.228793 43.293332 14.395318 42.722656 14.533203 C 41.572059 14.811208 39.879702 15 38 15 C 36.120298 15 34.427865 14.811303 33.277344 14.533203 C 32.705616 14.395007 32.269938 14.226954 32.052734 14.103516 C 32.105164 12.827366 32.596069 11.536866 34.417969 10.951172 L 34.410156 10.925781 A 1.0001 1.0001 0 0 0 35 10 L 35 7 z M 38 9 A 1 1 0 0 0 38 11 A 1 1 0 0 0 38 9 z M 30.017578 14.037109 C 30.01311 14.128495 30 14.222763 30 14.3125 C 30 15.10183 30.559761 15.555703 31.048828 15.835938 C 31.537895 16.116172 32.118026 16.310113 32.806641 16.476562 C 34.18387 16.809462 35.990702 17 38 17 C 40.009298 17 41.816206 16.811261 43.193359 16.478516 C 43.881936 16.312143 44.460217 16.117893 44.949219 15.837891 C 45.43822 15.557888 46 15.102178 46 14.3125 C 46 14.237381 45.987499 14.158322 45.984375 14.082031 C 47.377558 14.266179 49.785531 14.871547 51.869141 16.910156 C 54.74212 19.720303 54.917477 23.220307 54.9375 23.9375 L 54.9375 28 A 1.0001 1.0001 0 0 0 55.759766 28.998047 L 59.986328 31.150391 A 1.0001 1.0001 0 0 0 60.080078 31.191406 C 62.072112 31.957844 63.597157 33.540445 64.390625 35.486328 C 63.248247 34.560165 61.81475 34 60.25 34 L 38.6875 34 C 34.948301 34 31.9375 37.168839 31.9375 41 L 31.9375 44 C 31.9375 45.948714 32.718996 47.723858 33.976562 49 L 33.142578 49 C 29.753683 49 27 46.190254 27 42.667969 L 27 35.333984 C 27 31.811253 29.752635 29.001091 33.140625 29 C 33.140625 29 33.142578 29 33.142578 29 A 1.0001 1.0001 0 1 0 33.142578 27 C 28.643473 27 25 30.7574 25 35.333984 L 25 42.667969 C 25 47.243683 28.643473 51 33.142578 51 L 58 51 L 58 53.517578 C 57.93442 53.548308 57.999933 53.523979 57.882812 53.574219 C 57.415138 53.774877 56.573994 54.068066 55.179688 54.367188 C 52.391075 54.965427 47.39617 55.583984 38.777344 55.583984 C 36.381333 55.583984 34.280698 55.425837 32.445312 55.162109 C 28.407051 54.585382 24.777344 57.750614 24.777344 61.771484 L 24.777344 61.837891 C 24.777344 65.803159 27.709636 69.202596 31.681641 69.820312 C 33.731975 70.140806 36.084203 70.335937 38.777344 70.335938 C 45.331831 70.335938 49.729323 69.799701 52.511719 69.253906 C 54.302586 68.90261 54.512781 68.737441 55.111328 68.515625 L 55.111328 72.132812 C 54.852704 72.247061 54.345812 72.523733 52.126953 72.958984 C 49.492849 73.47569 45.222857 74.001953 38.777344 74.001953 C 31.685599 74.000969 26.89065 72.613704 23.882812 71.255859 C 21.304927 70.09211 20.293645 69.161232 20 68.875 L 20 25 A 1.0001 1.0001 0 0 0 19.996094 24.902344 C 20.010384 25.04786 20.005694 24.557221 20.103516 24.011719 C 20.201356 23.466216 20.375118 22.739371 20.662109 21.925781 C 21.236091 20.298602 22.256966 18.332082 23.990234 16.685547 C 26.125328 14.656966 28.617125 14.156614 30.017578 14.037109 z M 37.160156 27.419922 C 36.610156 27.319922 36.090234 27.680703 35.990234 28.220703 C 35.880234 28.760703 36.239297 29.280625 36.779297 29.390625 C 36.849297 29.400625 36.910703 29.400391 36.970703 29.400391 C 37.440703 29.400391 37.859219 29.069844 37.949219 28.589844 C 38.049219 28.049844 37.700156 27.519922 37.160156 27.419922 z M 40.900391 28.080078 C 40.350391 28.010078 39.849531 28.389453 39.769531 28.939453 C 39.699531 29.489453 40.080859 29.990547 40.630859 30.060547 C 40.680859 30.070547 40.719531 30.070313 40.769531 30.070312 C 41.259531 30.070312 41.689766 29.710938 41.759766 29.210938 C 41.829766 28.660938 41.440391 28.160078 40.900391 28.080078 z M 52.119141 28.080078 C 51.569141 28.180078 51.210547 28.700234 51.310547 29.240234 C 51.390547 29.730234 51.809063 30.070313 52.289062 30.070312 C 52.349062 30.070313 52.400937 30.060781 52.460938 30.050781 C 53.010938 29.960781 53.369297 29.440391 53.279297 28.900391 C 53.179297 28.350391 52.659141 27.990078 52.119141 28.080078 z M 44.650391 28.410156 C 44.100391 28.380156 43.629609 28.809375 43.599609 29.359375 C 43.579609 29.909375 44.010547 30.380156 44.560547 30.410156 L 44.599609 30.410156 C 45.129609 30.410156 45.579609 29.989219 45.599609 29.449219 C 45.629609 28.899219 45.200391 28.430156 44.650391 28.410156 z M 48.419922 28.449219 C 47.869922 28.469219 47.440937 28.930469 47.460938 29.480469 C 47.470937 30.020469 47.920938 30.449219 48.460938 30.449219 L 48.490234 30.449219 C 49.040234 30.429219 49.470937 29.969922 49.460938 29.419922 C 49.440938 28.869922 48.979922 28.429219 48.419922 28.449219 z M 38.6875 36 L 40.125 36 C 43.331081 36 46 38.854693 46 42.5 C 46 46.145307 43.331081 49 40.125 49 L 38.6875 49 C 36.076699 49 33.9375 46.794839 33.9375 44 L 35.25 44 C 35.664 44 36 43.664 36 43.25 L 36 41.75 C 36 41.336 35.664 41 35.25 41 L 33.9375 41 C 33.9375 38.205161 36.076699 36 38.6875 36 z M 52.943359 36 C 56.264582 36 59 38.867734 59 42.5 C 59 46.132266 56.264582 49 52.943359 49 C 50.568822 49 48.528498 47.528733 47.53125 45.353516 C 47.829091 44.457444 48 43.49871 48 42.5 C 48 41.50129 47.829091 40.542556 47.53125 39.646484 C 48.528498 37.471267 50.568822 36 52.943359 36 z M 58.123047 36 L 60.25 36 C 62.860801 36 65 38.205161 65 41 L 65 44 C 65 46.480465 63.313615 48.493868 61.109375 48.916016 C 60.85282 48.96252 60.591225 48.993916 60.322266 48.996094 C 60.298002 48.996476 60.274347 49 60.25 49 L 58.123047 49 C 59.883462 47.433361 61 45.09172 61 42.5 C 61 39.90828 59.883462 37.566639 58.123047 36 z M 50.75 41 C 50.336 41 50 41.336 50 41.75 L 50 43.25 C 50 43.664 50.336 44 50.75 44 L 52.25 44 C 52.664 44 53 43.664 53 43.25 L 53 41.75 C 53 41.336 52.664 41 52.25 41 L 50.75 41 z M 53 56.777344 L 53 67 A 1.0001 1.0001 0 0 0 53.003906 67.095703 C 52.714906 67.160938 52.473972 67.222944 52.126953 67.291016 C 51.282125 67.456737 50.199185 67.617295 49 67.767578 L 49 66 A 1.0001 1.0001 0 0 0 47.984375 64.986328 A 1.0001 1.0001 0 0 0 47 66 L 47 67.994141 C 45.319734 68.147462 43.273779 68.243348 41 68.291016 L 41 66 A 1.0001 1.0001 0 0 0 39.984375 64.986328 A 1.0001 1.0001 0 0 0 39 66 L 39 68.332031 C 38.9198 68.332197 38.858228 68.335937 38.777344 68.335938 C 36.566811 68.335938 34.731421 68.143642 33 67.916016 L 33 66 A 1.0001 1.0001 0 1 0 31 66 L 31 67.503906 C 28.525638 66.674808 26.777344 64.467272 26.777344 61.837891 L 26.777344 61.771484 C 26.777344 59.338676 28.648875 57.360533 31 57.121094 L 31 59 A 1.0001 1.0001 0 1 0 33 59 L 33 57.246094 C 34.728978 57.457116 36.639789 57.583984 38.777344 57.583984 C 38.855541 57.583984 38.922381 57.582131 39 57.582031 L 39 59 A 1.0001 1.0001 0 1 0 41 59 L 41 57.564453 C 43.249307 57.534854 45.25594 57.465805 47 57.361328 L 47 59 A 1.0001 1.0001 0 1 0 49 59 L 49 57.216797 C 50.539768 57.090692 51.867609 56.941259 53 56.777344 z M 32 61.5 C 31.45 61.5 31 61.95 31 62.5 C 31 63.05 31.45 63.5 32 63.5 C 32.55 63.5 33 63.05 33 62.5 C 33 61.95 32.55 61.5 32 61.5 z M 40 61.5 C 39.45 61.5 39 61.95 39 62.5 C 39 63.05 39.45 63.5 40 63.5 C 40.55 63.5 41 63.05 41 62.5 C 41 61.95 40.55 61.5 40 61.5 z M 48 61.5 C 47.45 61.5 47 61.95 47 62.5 C 47 63.05 47.45 63.5 48 63.5 C 48.55 63.5 49 63.05 49 62.5 C 49 61.95 48.55 61.5 48 61.5 z"/></svg>