<svg fill="#000000" xmlns="http://www.w3.org/2000/svg"  viewBox="0 0 80 80" width="80px" height="80px"><path d="M 40 7 C 36.323488 7 34.098579 7.8343281 32.392578 8.8359375 C 30.686577 9.8375469 29.548085 10.878999 27.667969 11.539062 L 27.677734 11.537109 C 25.721988 12.203692 23.627359 12.975488 21.939453 14.277344 C 20.251512 15.579247 19 17.523322 19 20.128906 C 19 23.358751 21.660206 25.228997 22.195312 25.576172 C 20.996461 27.521087 20.274942 29.644569 20.044922 31.779297 C 19.898516 31.749587 19.803883 31.667969 19.652344 31.667969 C 17.150292 31.667968 15 33.73762 15 36.400391 C 15 38.084627 15.920422 39.530701 17.253906 40.361328 C 16.46455 40.925002 15.711361 41.537565 15.033203 42.222656 A 1.0001 1.0001 0 0 0 14.955078 42.3125 L 11.529297 46.705078 A 1.0001 1.0001 0 0 0 11.662109 48.076172 L 12.816406 49.076172 L 10.1875 52.728516 A 1.0001 1.0001 0 0 0 10.730469 54.275391 L 12.173828 54.679688 L 10.818359 60.265625 A 1.0001 1.0001 0 0 0 11.875 61.498047 L 14.03125 61.316406 L 14.353516 65.636719 A 1.0001 1.0001 0 0 0 15.568359 66.537109 L 18.486328 65.882812 L 21 69.34375 A 1.0001 1.0001 0 0 0 22.347656 69.599609 L 24.246094 68.388672 L 26.982422 70.599609 A 1.0001 1.0001 0 0 0 28.074219 70.707031 L 30.873047 69.236328 L 33.292969 70.681641 A 1.0001 1.0001 0 0 0 34.068359 70.787109 L 37.193359 69.9375 L 39.535156 70.765625 A 1.0001 1.0001 0 0 0 40.201172 70.765625 L 42.542969 69.9375 L 45.667969 70.787109 A 1.0001 1.0001 0 0 0 46.443359 70.681641 L 48.861328 69.236328 L 51.662109 70.707031 A 1.0001 1.0001 0 0 0 52.755859 70.599609 L 55.490234 68.388672 L 57.388672 69.599609 A 1.0001 1.0001 0 0 0 58.736328 69.34375 L 61.263672 65.861328 L 64.201172 66.412109 A 1.0001 1.0001 0 0 0 65.382812 65.503906 L 65.705078 61.183594 L 67.861328 61.365234 A 1.0001 1.0001 0 0 0 68.925781 60.167969 L 67.794922 54.689453 L 69.269531 54.275391 A 1.0001 1.0001 0 0 0 69.830078 52.755859 L 67.292969 48.966797 L 68.332031 48.080078 A 1.0001 1.0001 0 0 0 68.425781 46.650391 L 64.470703 42.257812 A 1.0001 1.0001 0 0 0 64.4375 42.222656 C 63.840851 41.620304 63.182078 41.079429 62.498047 40.570312 C 63.985305 39.781658 65 38.205093 65 36.400391 C 65 33.878724 62.988242 31.667969 60.347656 31.667969 C 60.206572 31.667969 60.084086 31.737049 59.943359 31.755859 C 59.722531 29.653762 59.043535 27.590262 57.925781 25.701172 C 58.27842 25.442292 61 23.353358 61 20.126953 C 61 19.011064 60.528837 17.664255 59.275391 16.40625 C 58.025022 15.151334 56.024577 13.946087 52.876953 12.861328 C 51.368216 12.308963 50.042983 10.944649 48.148438 9.5917969 C 46.253892 8.2389448 43.744905 7 40 7 z M 40 9 C 43.322095 9 45.281124 10.001102 46.986328 11.21875 C 48.691533 12.436398 50.09819 13.972647 52.189453 14.738281 A 1.0001 1.0001 0 0 0 52.207031 14.746094 C 55.179972 15.768254 56.910869 16.868364 57.857422 17.818359 C 58.803973 18.768368 59 19.529842 59 20.126953 C 59 21.956037 57.250482 23.61927 56.787109 24.03125 C 55.728546 22.681934 54.410231 21.461552 52.839844 20.431641 A 1.0001 1.0001 0 0 0 52.140625 20.001953 C 51.281745 19.493298 50.362205 19.032924 49.365234 18.642578 A 1.0001 1.0001 0 0 0 49.349609 18.636719 L 49.347656 18.634766 L 49.337891 18.632812 A 1.0001 1.0001 0 0 0 48.974609 18.568359 A 1.0001 1.0001 0 0 0 48.634766 20.503906 C 49.019532 20.654555 49.392362 20.814943 49.753906 20.984375 C 47.797644 21.828048 44.346883 23 40.199219 23 C 36.341212 23 33.405922 22.306076 31.445312 21.623047 C 30.930594 21.443731 30.497127 21.269331 30.123047 21.107422 C 30.224575 21.057658 30.320445 21.003367 30.423828 20.955078 A 1.0001 1.0001 0 0 0 30.03125 19.044922 A 1.0001 1.0001 0 0 0 29.576172 19.144531 C 28.915809 19.452978 28.294045 19.794982 27.701172 20.158203 C 27.699467 20.159248 27.697017 20.159111 27.695312 20.160156 A 1.0001 1.0001 0 0 0 27.224609 20.460938 C 25.694127 21.465538 24.401833 22.644438 23.353516 23.941406 C 23.046604 23.722323 21 22.193626 21 20.128906 C 21 18.12049 21.814812 16.898972 23.160156 15.861328 C 24.505501 14.823684 26.411012 14.081105 28.322266 13.429688 A 1.0001 1.0001 0 0 0 28.332031 13.425781 C 30.584915 12.634846 31.912251 11.437688 33.40625 10.560547 C 34.900214 9.6833991 36.609512 9 40 9 z M 41.189453 17.025391 L 40.386719 17.425781 L 40.230469 18.308594 L 40.841797 18.962891 L 41.189453 19.025391 L 41.990234 18.623047 L 42.148438 17.742188 L 41.535156 17.087891 L 41.189453 17.025391 z M 37.193359 17.138672 L 36.392578 17.539062 L 36.234375 18.421875 L 36.845703 19.076172 L 37.193359 19.138672 L 37.994141 18.736328 L 38.152344 17.855469 L 37.539062 17.201172 L 37.193359 17.138672 z M 45.158203 17.478516 L 44.357422 17.878906 L 44.199219 18.761719 L 44.8125 19.416016 L 45.158203 19.478516 L 45.958984 19.076172 L 46.117188 18.193359 L 45.505859 17.539062 L 45.158203 17.478516 z M 33.263672 17.861328 L 32.462891 18.261719 L 32.304688 19.144531 L 32.916016 19.798828 L 33.263672 19.861328 L 34.064453 19.458984 L 34.222656 18.578125 L 33.609375 17.923828 L 33.263672 17.861328 z M 51.898438 22.181641 C 56.076692 24.929753 58.173828 29.078405 58.173828 33.199219 A 1.0001 1.0001 0 0 0 59.783203 33.994141 C 60.086676 33.761594 60.235351 33.63517 60.205078 33.652344 C 60.174808 33.669514 60.089652 33.667969 60.347656 33.667969 C 61.881071 33.667969 63 34.922057 63 36.400391 C 63 37.681765 62.12659 38.746798 61.013672 39.03125 A 1.0001 1.0001 0 0 0 60.539062 39.291016 C 57.924609 37.82842 54.967768 37 52.126953 37 L 44.613281 37 A 1.0001 1.0001 0 0 0 43.628906 37.826172 C 43.628906 37.826172 43.552316 38.29846 43.080078 38.849609 C 42.607835 39.400759 41.796869 40 39.998047 40 C 38.199785 40 37.208465 39.378411 36.591797 38.78125 C 35.975129 38.184089 35.800781 37.667969 35.800781 37.667969 A 1.0001 1.0001 0 0 0 34.857422 37 L 27.34375 37 C 24.591346 37 21.724216 37.767941 19.169922 39.146484 A 1.0002256 1.0002256 0 0 0 18.826172 38.929688 C 17.752535 38.53016 17 37.565807 17 36.400391 C 17 34.797161 18.240396 33.667969 19.652344 33.667969 C 19.842352 33.667969 19.691909 33.637886 19.724609 33.660156 C 19.757309 33.682406 19.990228 33.895033 20.371094 34.089844 A 1.0001 1.0001 0 0 0 21.826172 33.199219 C 21.826172 29.268504 23.91538 25.109465 28.048828 22.308594 C 28.57366 22.604206 29.389631 23.02487 30.787109 23.511719 C 32.937 24.260689 36.101225 25 40.199219 25 C 46.095838 25 50.531929 22.902978 51.898438 22.181641 z M 31.748047 26 C 30.815322 26 30.03583 26.376159 29.431641 26.707031 C 28.827451 27.037904 28.388672 27.375 28.388672 27.375 A 1.0004865 1.0004865 0 0 0 29.611328 28.958984 C 29.611328 28.958984 29.929314 28.713565 30.390625 28.460938 C 30.851936 28.208309 31.444772 28 31.748047 28 C 32.583206 28 32.962236 28.250088 33.355469 28.728516 C 33.623887 29.055087 33.851655 29.540128 34.066406 30.070312 A 2.523 2.5 0 0 0 33.476562 30 A 2.523 2.5 0 0 0 33.476562 35 A 2.523 2.5 0 0 0 35.650391 33.761719 C 36.163518 34.43456 36.948761 35 37.9375 35 C 38.851326 35 39.504475 34.674577 40 34.283203 C 40.495525 34.674577 41.148674 35 42.0625 35 C 43.033123 35 43.808119 34.455084 44.322266 33.798828 A 2.523 2.5 0 0 0 46.476562 35 A 2.523 2.5 0 0 0 46.476562 30 A 2.523 2.5 0 0 0 45.9375 30.060547 C 46.151191 29.534397 46.377735 29.053114 46.644531 28.728516 C 47.037764 28.250088 47.416794 28 48.251953 28 C 48.555983 28 49.147975 28.20832 49.609375 28.460938 C 50.070775 28.713555 50.390625 28.958984 50.390625 28.958984 A 1.0001 1.0001 0 1 0 51.611328 27.375 C 51.611328 27.375 51.174663 27.037914 50.570312 26.707031 C 49.965962 26.376149 49.184924 26 48.251953 26 C 46.886612 26 45.785158 26.624912 45.099609 27.458984 C 44.414061 28.293057 44.055483 29.275832 43.746094 30.175781 C 43.436704 31.07573 43.171524 31.907651 42.882812 32.400391 C 42.594102 32.893131 42.484035 33 42.0625 33 C 41.342424 33 41.195758 32.808925 41.095703 32.681641 C 40.997773 32.557059 40.998117 32.508065 40.998047 32.505859 A 1.0001 1.0001 0 0 0 40.773438 31.953125 A 1.0001 1.0001 0 0 0 40.773438 31.951172 A 1.0001 1.0001 0 0 0 40.707031 31.878906 A 1.0001 1.0001 0 0 0 40.466797 31.701172 A 1.0001 1.0001 0 0 0 40.183594 31.603516 A 1.0001 1.0001 0 0 0 40.083984 31.589844 A 1.0001 1.0001 0 0 0 39.984375 31.585938 A 1.0001 1.0001 0 0 0 39.597656 31.669922 A 1.0001 1.0001 0 0 0 39.595703 31.671875 A 1.0001 1.0001 0 0 0 39.271484 31.900391 A 1.0001 1.0001 0 0 0 39.207031 31.974609 A 1.0001 1.0001 0 0 0 39.207031 31.976562 A 1.0001 1.0001 0 0 0 39.0625 32.236328 A 1.0001 1.0001 0 0 0 39.0625 32.238281 A 1.0001 1.0001 0 0 0 39.003906 32.501953 A 1.0001 1.0001 0 0 0 39.003906 32.503906 C 39.00389 32.504779 39.003521 32.555416 38.904297 32.681641 C 38.804291 32.808786 38.657576 33 37.9375 33 C 37.515965 33 37.405898 32.893131 37.117188 32.400391 C 36.828477 31.907651 36.563296 31.07573 36.253906 30.175781 C 35.944517 29.275832 35.585939 28.293057 34.900391 27.458984 C 34.214842 26.624912 33.113388 26 31.748047 26 z M 27.34375 39 L 34.369141 39 C 34.549069 39.363733 34.598781 39.635415 35.201172 40.21875 C 36.133504 41.121589 37.710309 42 39.998047 42 C 42.286225 42 43.784649 41.099241 44.597656 40.150391 C 45.070842 39.598142 45.044087 39.387813 45.179688 39 L 52.126953 39 C 55.90517 39 60.176541 40.769126 63.005859 43.619141 L 66.253906 47.226562 L 65.318359 48.025391 A 1.0001 1.0001 0 0 0 65.136719 49.341797 L 67.402344 52.722656 L 66.357422 53.015625 A 1.0001 1.0001 0 0 0 65.648438 54.179688 L 66.697266 59.261719 L 64.865234 59.107422 A 1.0001 1.0001 0 0 0 63.785156 60.029297 L 63.472656 64.240234 L 61.011719 63.779297 A 1.0001 1.0001 0 0 0 60.017578 64.175781 L 57.671875 67.408203 L 55.958984 66.316406 A 1.0001 1.0001 0 0 0 54.792969 66.380859 L 52.009766 68.630859 L 49.296875 67.205078 A 1.0001 1.0001 0 0 0 48.318359 67.232422 L 45.783203 68.746094 L 42.765625 67.925781 A 1.0001 1.0001 0 0 0 42.169922 67.947266 L 39.867188 68.761719 L 37.564453 67.947266 A 1.0001 1.0001 0 0 0 36.96875 67.925781 L 33.953125 68.746094 L 31.417969 67.232422 A 1.0001 1.0001 0 0 0 30.439453 67.205078 L 27.726562 68.630859 L 24.943359 66.380859 A 1.0001 1.0001 0 0 0 23.775391 66.316406 L 22.064453 67.408203 L 19.71875 64.175781 A 1.0001 1.0001 0 0 0 18.689453 63.787109 L 16.261719 64.332031 L 15.953125 60.162109 A 1.0001 1.0001 0 0 0 14.871094 59.240234 L 13.089844 59.390625 L 14.345703 54.212891 A 1.0001 1.0001 0 0 0 13.642578 53.015625 L 12.646484 52.736328 L 14.972656 49.503906 A 1.0001 1.0001 0 0 0 14.816406 48.164062 L 13.689453 47.1875 L 16.480469 43.609375 C 19.308706 40.766068 23.572183 39 27.34375 39 z M 25.482422 45.007812 C 23.052439 45.115522 21 47.04914 21 49.585938 L 21 57.447266 C 21 60.208439 23.494806 62.302915 26.236328 61.962891 A 1.0001 1.0001 0 0 0 26.263672 61.958984 C 29.856747 61.41802 35.488088 60.615234 40 60.615234 C 44.487824 60.615234 49.974538 61.548635 53.763672 61.962891 C 56.505194 62.302915 59 60.208439 59 57.447266 L 59 49.722656 C 59 46.786133 56.221818 44.697345 53.447266 45.212891 A 1.0001 1.0001 0 0 0 53.421875 45.21875 C 50.296423 45.877824 45.594138 46.417969 40 46.417969 C 34.405862 46.417969 29.7062 45.873181 26.617188 45.091797 A 1.0001 1.0001 0 0 0 26.542969 45.076172 C 26.185346 45.013426 25.829562 44.992425 25.482422 45.007812 z M 25.552734 46.996094 C 25.760952 46.991247 25.976388 47.008121 26.197266 47.046875 C 26.799332 47.197518 27.460967 47.335122 28.154297 47.464844 A 1 1 0 0 0 29 49 A 1 1 0 0 0 29.972656 47.765625 C 32.603289 48.144934 35.719897 48.376529 39.195312 48.408203 A 1 1 0 0 0 40 50 A 1 1 0 0 0 40.798828 48.398438 C 44.291388 48.366149 47.397099 48.134193 50.023438 47.791016 A 1 1 0 0 0 51 49 A 1 1 0 0 0 51.876953 47.521484 C 52.548143 47.410664 53.230765 47.302045 53.8125 47.179688 C 55.407948 46.883234 57 48.051179 57 49.722656 L 57 54.703125 C 57 55.552365 56.68097 56.099071 56.162109 56.488281 C 55.645595 56.875731 54.88421 57.075557 54.023438 56.966797 C 53.417886 56.870212 52.688797 56.657408 51.912109 56.404297 A 1 1 0 0 0 51 55 A 1 1 0 0 0 50.033203 55.746094 C 49.276006 55.467689 48.534135 55.193954 47.71875 54.896484 C 45.572403 54.113453 43.270938 53.354253 40.984375 53.175781 A 1 1 0 0 0 40 52 A 1 1 0 0 0 39.015625 53.175781 C 36.729062 53.354253 34.427597 54.113453 32.28125 54.896484 C 31.465865 55.193954 30.723994 55.467689 29.966797 55.746094 A 1 1 0 0 0 29 55 A 1 1 0 0 0 28.085938 56.404297 C 27.309951 56.657126 26.581653 56.870285 25.976562 56.966797 C 25.11579 57.075557 24.354405 56.875727 23.837891 56.488281 C 23.31903 56.099071 23 55.552365 23 54.703125 L 23 49.585938 C 23 48.090734 24.095211 47.030019 25.552734 46.996094 z M 29 51 A 1 1 0 0 0 29 53 A 1 1 0 0 0 29 51 z M 51 51 A 1 1 0 0 0 51 53 A 1 1 0 0 0 51 51 z M 40 55.136719 C 42.150205 55.136719 44.634487 55.900288 47.033203 56.775391 C 49.431919 57.650493 51.71741 58.632162 53.730469 58.949219 A 1.0001 1.0001 0 0 0 53.757812 58.953125 C 54.844306 59.093847 55.903204 58.902903 56.800781 58.421875 C 56.371554 59.465448 55.275597 60.135513 54.009766 59.978516 A 1.0001 1.0001 0 0 0 53.994141 59.976562 C 50.325677 59.576216 44.765531 58.615234 40 58.615234 C 35.263079 58.615234 29.598185 59.435446 25.990234 59.978516 C 24.724403 60.135513 23.628446 59.465448 23.199219 58.421875 C 24.096796 58.902903 25.155694 59.093847 26.242188 58.953125 A 1.0001 1.0001 0 0 0 26.269531 58.949219 C 28.28259 58.632162 30.568081 57.650493 32.966797 56.775391 C 35.365513 55.900288 37.849795 55.136719 40 55.136719 z"/></svg>