<svg fill="#000000" xmlns="http://www.w3.org/2000/svg"  viewBox="0 0 80 80" width="80px" height="80px"><path d="M 38.267578 7.0488281 L 37.466797 7.4492188 L 37.308594 8.3320312 L 37.921875 8.9863281 L 38.267578 9.0488281 L 39.068359 8.6464844 L 39.226562 7.765625 L 38.615234 7.109375 L 38.267578 7.0488281 z M 42.265625 7.0878906 L 41.464844 7.4902344 L 41.306641 8.3730469 L 41.917969 9.0273438 L 42.265625 9.0878906 L 43.066406 8.6875 L 43.224609 7.8046875 L 42.611328 7.1503906 L 42.265625 7.0878906 z M 34.298828 7.5175781 L 33.498047 7.9179688 L 33.339844 8.8007812 L 33.951172 9.4550781 L 34.298828 9.5175781 L 35.099609 9.1152344 L 35.257812 8.2324219 L 34.646484 7.578125 L 34.298828 7.5175781 z M 46.228516 7.6113281 L 45.427734 8.0117188 L 45.269531 8.8945312 L 45.880859 9.5488281 L 46.228516 9.6113281 L 47.029297 9.2089844 L 47.1875 8.328125 L 46.574219 7.671875 L 46.228516 7.6113281 z M 30.416016 8.4628906 L 29.613281 8.8632812 L 29.457031 9.7460938 L 30.068359 10.400391 L 30.416016 10.462891 L 31.216797 10.060547 L 31.375 9.1777344 L 30.761719 8.5234375 L 30.416016 8.4628906 z M 50.091797 8.6328125 L 49.291016 9.0351562 L 49.132812 9.9160156 L 49.744141 10.572266 L 50.091797 10.632812 L 50.892578 10.232422 L 51.050781 9.3496094 L 50.439453 8.6953125 L 50.091797 8.6328125 z M 26.685547 9.9023438 L 25.884766 10.304688 L 25.726562 11.185547 L 26.339844 11.839844 L 26.685547 11.902344 L 27.488281 11.501953 L 27.644531 10.619141 L 27.033203 9.9648438 L 26.685547 9.9023438 z M 53.800781 10.123047 L 53 10.523438 L 52.841797 11.40625 L 53.453125 12.060547 L 53.800781 12.123047 L 54.601562 11.720703 L 54.759766 10.839844 L 54.148438 10.185547 L 53.800781 10.123047 z M 23.162109 11.789062 L 22.361328 12.191406 L 22.203125 13.072266 L 22.816406 13.726562 L 23.162109 13.789062 L 23.964844 13.386719 L 24.121094 12.505859 L 23.509766 11.851562 L 23.162109 11.789062 z M 57.287109 12.078125 L 56.486328 12.478516 L 56.328125 13.361328 L 56.939453 14.015625 L 57.287109 14.078125 L 58.087891 13.675781 L 58.246094 12.794922 L 57.634766 12.140625 L 57.287109 12.078125 z M 19.904297 14.103516 L 19.103516 14.505859 L 18.945312 15.386719 L 19.556641 16.041016 L 19.904297 16.103516 L 20.705078 15.703125 L 20.863281 14.820312 L 20.251953 14.166016 L 19.904297 14.103516 z M 60.509766 14.441406 L 59.708984 14.84375 L 59.550781 15.724609 L 60.164062 16.378906 L 60.509766 16.441406 L 61.310547 16.041016 L 61.46875 15.158203 L 60.857422 14.503906 L 60.509766 14.441406 z M 39.998047 16 C 39.980697 16.000019 39.962694 16.001897 39.945312 16.001953 C 39.015753 16.003756 38.168414 16.060718 37.361328 16.144531 C 36.825998 16.196081 36.286832 16.248962 35.818359 16.324219 C 35.206393 16.422529 34.678459 16.533117 34.236328 16.681641 C 34.097899 16.728142 33.96678 16.781858 33.835938 16.845703 C 31.359374 17.631418 29.709246 18.889333 28.685547 20.324219 C 26.976347 22.719947 27 25.410328 27 26.611328 L 27.027344 26.611328 C 27.025992 26.632748 27.02661 26.654349 27.025391 26.675781 C 26.091283 26.715768 25.332031 28.732404 25.332031 31.240234 C 25.332031 32.029154 25.414994 32.753852 25.546875 33.396484 C 25.022529 34.722508 24.491547 36.281154 24.208984 38.054688 C 19.388308 39.170857 15.285554 40.778936 12.277344 42.787109 C 10.968556 43.660809 9.8648802 44.627832 9 45.667969 L 9 40 L 8.8261719 40 L 8.9726562 39.181641 L 8.3613281 38.527344 L 8.0136719 38.464844 L 7.2128906 38.867188 L 7.0546875 39.748047 L 7.2910156 40 L 7 40 L 7 56 L 7 61.332031 C 7 63.210117 8.1380878 64.883735 9.8964844 66.269531 C 11.654881 67.655328 14.088821 68.834903 17.056641 69.824219 C 22.99228 71.802851 31.073419 73 40 73 C 48.926581 73 57.00772 71.802851 62.943359 69.824219 C 65.911179 68.834903 68.345119 67.655328 70.103516 66.269531 C 71.861912 64.883735 73 63.210117 73 61.332031 L 73 56 L 73 40 L 72.908203 40 L 72.958984 39.716797 L 72.347656 39.0625 L 72 39 L 71.199219 39.402344 L 71.091797 40 L 71 40 L 71 45.667969 C 70.13512 44.627832 69.031444 43.660809 67.722656 42.787109 C 64.714446 40.778936 60.611692 39.170857 55.791016 38.054688 C 55.504135 36.254054 54.961616 34.671162 54.429688 33.332031 C 54.397701 33.251505 54.37728 33.200192 54.345703 33.121094 C 54.447209 32.549085 54.507812 31.914346 54.507812 31.240234 C 54.507812 28.902243 53.845432 27.006072 53 26.724609 L 53 26.273438 C 53 26.172521 52.989355 26.074674 52.986328 25.974609 C 52.963072 24.614214 52.787544 22.389004 51.314453 20.324219 C 50.291589 18.890504 48.643086 17.633515 46.169922 16.847656 C 46.041849 16.784614 45.913315 16.731848 45.777344 16.685547 C 45.339629 16.536494 44.816077 16.423655 44.207031 16.324219 C 43.599151 16.224973 42.911977 16.14427 42.195312 16.087891 C 42.194087 16.087789 42.192632 16.087992 42.191406 16.087891 C 41.473894 16.031549 40.724772 15.999275 39.998047 16 z M 16.958984 16.806641 L 16.158203 17.207031 L 16 18.089844 L 16.613281 18.744141 L 16.958984 18.806641 L 17.759766 18.404297 L 17.917969 17.523438 L 17.306641 16.869141 L 16.958984 16.806641 z M 63.410156 17.193359 L 62.609375 17.59375 L 62.451172 18.476562 L 63.0625 19.130859 L 63.410156 19.193359 L 64.210938 18.791016 L 64.369141 17.910156 L 63.755859 17.255859 L 63.410156 17.193359 z M 14.363281 19.845703 L 13.5625 20.248047 L 13.404297 21.128906 L 14.017578 21.783203 L 14.363281 21.845703 L 15.164062 21.445312 L 15.322266 20.5625 L 14.710938 19.908203 L 14.363281 19.845703 z M 35.542969 20 L 40 20 C 40.173925 19.999911 40.348592 20.00367 40.521484 20 L 44.457031 20 C 46.598439 20 48.197621 20.684425 49.291016 21.779297 C 49.314502 21.802815 49.334378 21.829588 49.357422 21.853516 C 48.895239 21.735651 48.432939 21.667969 48 21.667969 C 46.777833 21.667969 45.902641 22.097822 45.177734 22.419922 C 44.452828 22.742022 43.834302 23 42.667969 23 A 1.0001 1.0001 0 1 0 42.667969 25 C 44.167635 25 45.215141 24.592447 45.990234 24.248047 C 46.765328 23.903647 47.222167 23.667969 48 23.667969 C 48.734649 23.667969 49.449561 23.856781 49.990234 24.382812 C 50.530908 24.908845 51 25.848552 51 27.667969 L 51 29.25 C 51 30.792392 51.838407 32.227742 52.570312 34.070312 C 53.302219 35.912884 54 38.065982 54 40.578125 L 54 45.974609 C 54 50.050797 52.815841 53.015545 51.017578 55.097656 L 51 55.097656 C 51.000031 55.104096 50.999967 55.108802 51 55.115234 C 50.76028 55.391499 50.512055 55.654853 50.251953 55.900391 C 48.030668 57.997293 45.05983 59 42.099609 59 L 37.902344 59 C 34.941052 59 31.969556 57.997289 29.748047 55.900391 C 29.487919 55.654854 29.239735 55.391499 29 55.115234 C 29.000033 55.108802 28.999969 55.104096 29 55.097656 L 28.982422 55.097656 C 27.184048 53.015547 26 50.050797 26 45.974609 L 26 40.578125 C 26 38.065982 26.697782 35.912884 27.429688 34.070312 C 28.116788 32.340537 28.889382 30.968729 28.982422 29.53125 A 1.0001 1.0001 0 0 0 29 29.332031 C 29 28.35189 29.151233 27.133746 29.550781 26.294922 C 29.950329 25.456097 30.394342 25 31.5 25 C 31.953778 25 32.156719 25.169811 32.806641 25.550781 C 33.456562 25.931751 34.440962 26.404338 35.9375 26.498047 A 1.0001 1.0001 0 1 0 36.0625 24.501953 C 34.892038 24.428662 34.376688 24.151499 33.818359 23.824219 C 33.260031 23.496939 32.546222 23 31.5 23 C 30.962643 23 30.475989 23.107686 30.033203 23.279297 C 30.24804 22.898314 30.492397 22.539174 30.767578 22.210938 C 31.895737 20.865268 33.471602 20 35.542969 20 z M 65.947266 20.28125 L 65.146484 20.683594 L 64.988281 21.564453 L 65.599609 22.21875 L 65.947266 22.28125 L 66.748047 21.880859 L 66.90625 20.998047 L 66.292969 20.34375 L 65.947266 20.28125 z M 12.179688 23.193359 L 11.378906 23.595703 L 11.220703 24.476562 L 11.833984 25.132812 L 12.179688 25.193359 L 12.980469 24.792969 L 13.138672 23.910156 L 12.527344 23.255859 L 12.179688 23.193359 z M 68.085938 23.658203 L 67.285156 24.058594 L 67.126953 24.941406 L 67.740234 25.595703 L 68.085938 25.658203 L 68.886719 25.255859 L 69.044922 24.375 L 68.433594 23.720703 L 68.085938 23.658203 z M 34.667969 26.666016 C 32.438969 26.666016 31.191641 27.966328 30.806641 28.736328 C 30.486641 29.377328 30.743047 30.136469 31.373047 30.480469 C 31.576047 30.591469 31.794766 30.632047 32.009766 30.623047 C 32.034766 29.907047 32.612984 29.332031 33.333984 29.332031 C 33.533984 29.332031 33.718672 29.384891 33.888672 29.462891 C 34.345672 29.673891 34.667969 30.130016 34.667969 30.666016 C 34.667969 31.402016 34.071937 31.998047 33.335938 31.998047 C 32.986938 31.998047 32.672547 31.858719 32.435547 31.636719 C 32.714547 32.613719 33.602969 33.332031 34.667969 33.332031 C 35.954969 33.333031 37 32.288 37 31 C 37 30.863 36.983938 30.729656 36.960938 30.597656 C 37.081938 30.637656 37.205938 30.666016 37.335938 30.666016 C 37.535938 30.666016 37.738687 30.620391 37.929688 30.525391 C 38.587688 30.195391 38.856344 29.395328 38.527344 28.736328 C 38.142344 27.967328 36.896969 26.666016 34.667969 26.666016 z M 45.332031 26.666016 C 43.103031 26.666016 41.857656 27.966328 41.472656 28.736328 C 41.152656 29.377328 41.409063 30.136469 42.039062 30.480469 C 42.242063 30.591469 42.460781 30.632047 42.675781 30.623047 C 42.700781 29.907047 43.279 29.332031 44 29.332031 C 44.2 29.332031 44.384688 29.384891 44.554688 29.462891 C 45.011688 29.673891 45.333984 30.130016 45.333984 30.666016 C 45.332984 31.403016 44.736 32 44 32 C 43.651 32 43.336609 31.858719 43.099609 31.636719 C 43.378609 32.613719 44.267031 33.332031 45.332031 33.332031 C 46.620031 33.332031 47.666016 32.288 47.666016 31 C 47.666016 30.863 47.649953 30.729656 47.626953 30.597656 C 47.747953 30.637656 47.871953 30.666016 48.001953 30.666016 C 48.201953 30.666016 48.404703 30.620391 48.595703 30.525391 C 49.254703 30.195391 49.523359 29.395328 49.193359 28.736328 C 48.808359 27.967328 47.561031 26.666016 45.332031 26.666016 z M 10.419922 26.783203 L 9.6191406 27.183594 L 9.4609375 28.066406 L 10.074219 28.720703 L 10.419922 28.783203 L 11.222656 28.380859 L 11.378906 27.5 L 10.767578 26.845703 L 10.419922 26.783203 z M 69.775391 27.28125 L 68.974609 27.681641 L 68.816406 28.564453 L 69.427734 29.21875 L 69.775391 29.28125 L 70.576172 28.878906 L 70.734375 27.996094 L 70.123047 27.341797 L 69.775391 27.28125 z M 9.1308594 30.566406 L 8.3300781 30.966797 L 8.171875 31.849609 L 8.7851562 32.503906 L 9.1308594 32.566406 L 9.9316406 32.164062 L 10.089844 31.283203 L 9.4785156 30.628906 L 9.1308594 30.566406 z M 71.011719 31.082031 L 70.208984 31.482422 L 70.052734 32.365234 L 70.664062 33.019531 L 71.011719 33.082031 L 71.8125 32.679688 L 71.970703 31.798828 L 71.357422 31.144531 L 71.011719 31.082031 z M 8.3242188 34.480469 L 7.5234375 34.880859 L 7.3652344 35.763672 L 7.9765625 36.417969 L 8.3242188 36.480469 L 9.125 36.078125 L 9.2832031 35.197266 L 8.6699219 34.542969 L 8.3242188 34.480469 z M 40 35 C 39.460496 35 38.92098 35.12419 38.425781 35.371094 A 1.0001 1.0001 0 0 0 38.302734 35.443359 L 36.763672 36.511719 A 1.0001 1.0001 0 1 0 37.902344 38.154297 L 39.337891 37.160156 C 39.76079 36.956176 40.23921 36.956176 40.662109 37.160156 L 42.097656 38.154297 A 1.0001 1.0001 0 1 0 43.236328 36.511719 L 41.697266 35.443359 A 1.0001 1.0001 0 0 0 41.574219 35.371094 C 41.07902 35.12419 40.539504 35 40 35 z M 71.744141 35.011719 L 70.943359 35.412109 L 70.785156 36.294922 L 71.396484 36.949219 L 71.744141 37.011719 L 72.544922 36.609375 L 72.703125 35.728516 L 72.089844 35.072266 L 71.744141 35.011719 z M 47.960938 39 A 1.0001 1.0001 0 0 0 47.199219 39.400391 C 47.199219 39.400391 46.433314 40.436389 44.777344 40.857422 C 44.521051 40.908445 44.278826 40.958027 43.941406 41.013672 C 42.201628 41.300589 39.320799 41.581745 35.046875 41.642578 C 33.89248 41.522597 33.300781 40.734375 33.300781 40.734375 A 1.0001 1.0001 0 0 0 32.527344 40.333984 A 1.0001 1.0001 0 0 0 32.359375 40.34375 C 32.359375 40.34375 30.694697 40.602487 29.798828 42.169922 A 1.0003936 1.0003936 0 1 0 31.535156 43.164062 C 31.761795 42.76753 32.040347 42.564287 32.265625 42.453125 C 32.331823 42.516505 32.42339 42.586576 32.501953 42.654297 A 1.0001 1.0001 0 0 0 32.529297 42.904297 C 32.529297 42.904297 33.021153 45.035268 34.894531 46.462891 C 35.506089 46.929393 36.233383 47.284687 37.201172 47.455078 C 38.16995 47.625644 39.398747 47.667969 41.332031 47.667969 C 43.709281 47.667969 45.358911 46.028413 46.347656 44.558594 C 47.336401 43.088774 47.787109 41.632813 47.787109 41.632812 A 1.0001 1.0001 0 0 0 47.814453 41.529297 C 47.87277 41.482254 47.940442 41.432753 47.994141 41.386719 C 48.225318 41.604136 48.403631 41.739301 48.498047 41.882812 A 1.0001 1.0001 0 1 0 50.167969 40.783203 C 49.576163 39.883658 48.613281 39.210937 48.613281 39.210938 A 1.0001 1.0001 0 0 0 47.960938 39 z M 24.013672 40.152344 C 24.009737 40.294724 24 40.433456 24 40.578125 L 24 45.974609 C 24 47.966237 24.275824 49.756686 24.759766 51.355469 C 24.742124 51.359774 24.724622 51.354064 24.707031 51.359375 C 24.177031 51.519375 23.886875 52.079375 24.046875 52.609375 C 24.176875 53.039375 24.566094 53.320312 24.996094 53.320312 C 25.096094 53.320312 25.197109 53.299531 25.287109 53.269531 C 25.349721 53.25063 25.397312 53.210752 25.453125 53.181641 C 25.882927 54.132654 26.395755 54.995947 26.982422 55.771484 C 26.972391 56.46283 26.961926 57.146326 26.935547 57.742188 C 24.822715 58.2434 23.032291 58.842468 21.691406 59.537109 C 20.941256 59.925722 20.320205 60.339587 19.841797 60.832031 C 19.520218 61.163046 19.261347 61.557144 19.119141 61.996094 C 18.893822 61.860575 18.665235 61.724046 18.476562 61.585938 C 17.592336 60.938679 17.176689 60.337539 17.054688 59.751953 C 17.098188 59.637821 17.126953 59.516103 17.126953 59.390625 C 17.126953 59.130625 17.017891 58.869453 16.837891 58.689453 C 16.690758 58.54232 16.497409 58.463036 16.298828 58.425781 A 1.0001 1.0001 0 0 0 15.984375 58.378906 A 1.0001 1.0001 0 0 0 15 59.392578 C 15 60.341616 15.370529 61.206326 15.982422 61.966797 C 13.957468 61.170873 12.298341 60.285743 11.132812 59.367188 C 9.6526158 58.20064 9 57.067414 9 56 L 9 50.667969 C 9 48.537096 10.479944 46.390982 13.388672 44.449219 C 15.981719 42.718192 19.647863 41.222981 24.013672 40.152344 z M 55.986328 40.152344 C 60.352137 41.222981 64.018281 42.718192 66.611328 44.449219 C 69.520056 46.390982 71 48.537096 71 50.667969 L 71 56 C 71 57.067414 70.347385 58.20064 68.867188 59.367188 C 67.701659 60.285743 66.042532 61.170873 64.017578 61.966797 C 64.629488 61.206855 65 60.34153 65 59.392578 A 1.0001 1.0001 0 1 0 63 59.392578 C 63 60.091729 62.589278 60.805779 61.523438 61.585938 C 61.334761 61.724042 61.10618 61.86058 60.880859 61.996094 C 60.738658 61.557127 60.479798 61.162993 60.158203 60.832031 C 59.679772 60.339665 59.05872 59.927595 58.308594 59.539062 C 56.967357 58.844361 55.17772 58.244109 53.064453 57.742188 C 53.038074 57.146326 53.027609 56.46283 53.017578 55.771484 C 53.623297 54.970727 54.151824 54.07764 54.589844 53.089844 L 54.763672 53.275391 L 55.111328 53.335938 L 55.912109 52.935547 L 56.070312 52.052734 L 55.458984 51.398438 L 55.240234 51.359375 C 55.7249 49.75969 56 47.967732 56 45.974609 L 56 40.578125 C 56 40.433456 55.990263 40.294724 55.986328 40.152344 z M 44.886719 42.837891 A 1.0001 1.0001 0 0 0 44.986328 42.839844 C 44.862426 43.089651 44.888265 43.142959 44.6875 43.441406 C 43.882495 44.638087 42.779782 45.667969 41.332031 45.667969 C 39.432315 45.667969 38.27405 45.612059 37.548828 45.484375 C 36.823606 45.356691 36.552477 45.212838 36.107422 44.873047 A 1.0001 1.0001 0 0 0 36.105469 44.871094 C 35.627686 44.506996 35.357404 44.067768 35.109375 43.65625 C 35.184534 43.65944 35.253579 43.667969 35.332031 43.667969 A 1.0001 1.0001 0 0 0 35.707031 43.599609 C 39.62687 43.517418 42.525874 43.27356 44.267578 42.986328 C 44.686458 42.917249 44.707536 42.889592 44.886719 42.837891 z M 40 50.667969 C 38.333 50.667969 37.332031 51.694969 37.332031 53.167969 C 37.332031 54.000969 38.08 54.667969 39 54.667969 C 39.92 54.667969 40.667969 54.069984 40.667969 53.333984 C 40.667969 53.333984 41.333984 53.334969 41.333984 54.167969 C 41.332984 55.333969 40 56 40 56 C 40 56 42.667969 55.666031 42.667969 53.332031 C 42.667969 51.859031 41.473 50.667969 40 50.667969 z M 21.21875 52.759766 C 21.089844 52.766953 20.960391 52.799375 20.837891 52.859375 C 20.337891 53.109375 20.136953 53.709219 20.376953 54.199219 C 20.546953 54.559219 20.907344 54.759766 21.277344 54.759766 C 21.427344 54.759766 21.576797 54.730156 21.716797 54.660156 C 22.206797 54.410156 22.417969 53.810313 22.167969 53.320312 C 21.987969 52.945313 21.605469 52.738203 21.21875 52.759766 z M 58.835938 52.777344 L 58.035156 53.177734 L 57.876953 54.060547 L 58.488281 54.714844 L 58.835938 54.777344 L 59.636719 54.375 L 59.794922 53.494141 L 59.181641 52.839844 L 58.835938 52.777344 z M 17.988281 54.962891 C 17.732031 54.952891 17.472578 55.040469 17.267578 55.230469 C 16.867578 55.610469 16.846797 56.240391 17.216797 56.650391 C 17.416797 56.860391 17.687031 56.960938 17.957031 56.960938 C 18.197031 56.960938 18.436719 56.869453 18.636719 56.689453 C 19.036719 56.319453 19.0575 55.679297 18.6875 55.279297 C 18.4975 55.079297 18.244531 54.972891 17.988281 54.962891 z M 62.166016 54.962891 L 61.365234 55.363281 L 61.207031 56.246094 L 61.818359 56.900391 L 62.166016 56.962891 L 62.966797 56.560547 L 63.125 55.679688 L 62.511719 55.025391 L 62.166016 54.962891 z M 28.933594 57.830078 C 31.493447 59.980823 34.722038 61 37.902344 61 L 42.099609 61 C 45.279049 61 48.506869 59.980821 51.066406 57.830078 C 51.183186 60.479345 51.43854 62.305288 51.703125 63.533203 C 51.813708 64.046411 51.923083 64.427461 52.027344 64.753906 C 49.831874 65.119405 47.409721 65.387351 44.8125 65.533203 C 44.783215 65.534703 44.753921 65.535636 44.724609 65.537109 C 44.049381 65.574292 43.361189 65.601982 42.666016 65.623047 C 42.214231 65.635715 41.755842 65.640243 41.298828 65.646484 C 41.036876 65.649298 40.786142 65.659022 40.521484 65.660156 C 40.346386 65.661182 40.176017 65.666016 40 65.666016 C 39.794971 65.666016 39.596355 65.659595 39.392578 65.658203 C 39.160205 65.656719 38.93229 65.649641 38.701172 65.646484 C 38.240455 65.641536 37.785431 65.633133 37.333984 65.623047 C 33.931153 65.519923 30.762747 65.218397 27.972656 64.753906 C 28.076917 64.427461 28.186292 64.046411 28.296875 63.533203 C 28.561424 62.305288 28.816817 60.479345 28.933594 57.830078 z M 26.796875 59.833984 C 26.670803 61.268306 26.505435 62.3519 26.341797 63.111328 C 26.209435 63.725608 26.087082 64.113047 25.990234 64.380859 C 25.04108 64.181405 24.132931 63.966829 23.308594 63.726562 C 22.583021 63.515082 21.931232 63.282518 21.316406 63.042969 C 21.254709 62.992903 21.176018 62.938601 21.136719 62.896484 C 20.992751 62.742195 21 62.700513 21 62.667969 C 21 62.630689 21.02403 62.487306 21.277344 62.226562 C 21.530655 61.96582 21.986603 61.63809 22.611328 61.314453 C 23.615675 60.794154 25.060222 60.280469 26.796875 59.833984 z M 53.203125 59.833984 C 54.939798 60.280625 56.384287 60.794225 57.388672 61.314453 C 58.01342 61.638045 58.469368 61.965897 58.722656 62.226562 C 58.975944 62.487229 59 62.630693 59 62.667969 C 59 62.700509 59.0072 62.742199 58.863281 62.896484 C 58.823982 62.938601 58.745291 62.992903 58.683594 63.042969 C 58.068771 63.282521 57.416982 63.515061 56.691406 63.726562 C 55.867066 63.966854 54.958922 64.181397 54.009766 64.380859 C 53.91292 64.113047 53.790565 63.725608 53.658203 63.111328 C 53.494564 62.351897 53.329197 61.268306 53.203125 59.833984 z M 9 60.140625 C 9.278352 60.414626 9.5728903 60.682475 9.8964844 60.9375 C 11.654881 62.323297 14.088821 63.502871 17.056641 64.492188 C 19.122454 65.180821 21.461418 65.768209 23.992188 66.25 C 24.521585 66.380636 25.073591 66.504768 25.673828 66.617188 C 28.63806 67.17236 32.458146 67.498975 36.695312 67.613281 C 36.88545 67.619684 37.082349 67.617744 37.273438 67.623047 C 37.278596 67.623161 37.283902 67.622934 37.289062 67.623047 C 37.977972 67.643475 38.677943 67.653523 39.382812 67.658203 C 39.590264 67.659503 39.79161 67.667969 40 67.667969 C 40.20839 67.667969 40.409736 67.659503 40.617188 67.658203 C 41.322059 67.653524 42.022026 67.643472 42.710938 67.623047 C 42.716098 67.622934 42.721404 67.623161 42.726562 67.623047 C 42.917651 67.617744 43.11455 67.619684 43.304688 67.613281 C 47.541854 67.498975 51.36194 67.17236 54.326172 66.617188 C 54.926409 66.504768 55.478415 66.380636 56.007812 66.25 C 58.538582 65.768209 60.877546 65.180821 62.943359 64.492188 C 65.911179 63.502871 68.345119 62.323297 70.103516 60.9375 C 70.42711 60.682475 70.721648 60.414626 71 60.140625 L 71 61.332031 C 71 62.399445 70.347385 63.532672 68.867188 64.699219 C 67.386989 65.865766 65.133602 66.986675 62.310547 67.927734 C 56.664436 69.809853 48.746419 71 40 71 C 31.253581 71 23.335564 69.809853 17.689453 67.927734 C 14.866398 66.986675 12.613011 65.865766 11.132812 64.699219 C 9.6526158 63.532672 9 62.399445 9 61.332031 L 9 60.140625 z"/></svg>