<svg fill="#000000" xmlns="http://www.w3.org/2000/svg"  viewBox="0 0 80 80" width="80px" height="80px"><path d="M 40.5 7.96875 L 40.255859 8.03125 C 40.255859 8.03125 35.654307 9.1892536 30.302734 10.347656 C 24.951162 11.506059 18.761207 12.650391 16 12.650391 L 15 12.650391 L 15 43.099609 C 15 52.790099 21.392752 60.023941 27.644531 64.783203 C 33.89631 69.542466 40.142578 71.933594 40.142578 71.933594 L 40.498047 72.070312 L 40.853516 71.935547 C 40.853516 71.935547 47.100227 69.578227 53.353516 64.835938 C 59.606804 60.093648 66 52.857735 66 43.099609 L 66 12.650391 L 65 12.650391 C 62.234453 12.650391 56.045853 11.506051 50.695312 10.347656 C 45.344772 9.1892612 40.744141 8.03125 40.744141 8.03125 L 40.5 7.96875 z M 40.5 10.025391 C 40.717823 10.080161 45.014344 11.16456 50.271484 12.302734 C 55.250037 13.380594 60.598253 14.379438 64 14.539062 L 64 43.099609 C 64 51.981483 58.143196 58.69643 52.146484 63.244141 C 46.434137 67.576198 41.031373 69.696934 40.501953 69.902344 C 39.972535 69.69391 34.569344 67.541181 28.855469 63.191406 C 22.857248 58.625169 17 51.90712 17 43.099609 L 17 14.539062 C 20.398843 14.379397 25.745283 13.380561 30.724609 12.302734 C 35.982743 11.164557 40.282163 10.080145 40.5 10.025391 z M 40.5625 13.970703 L 40.324219 14.029297 C 36.574863 14.949443 28.34301 16.894361 21.972656 17.878906 L 21.125 18.009766 L 21.125 42.800781 C 21.125 48.809451 24.625246 53.722126 28.689453 57.40625 C 32.75366 61.090374 37.434057 63.612242 40.126953 64.902344 L 40.558594 65.109375 L 40.990234 64.902344 C 43.692641 63.607228 48.375908 61.082674 52.439453 57.398438 C 56.502998 53.714201 60 48.803977 60 42.800781 L 60 18.009766 L 59.152344 17.878906 C 52.783315 16.896392 44.549866 14.95037 40.800781 14.029297 L 40.5625 13.970703 z M 40.5625 16.025391 C 44.246348 16.928404 51.731527 18.674874 58 19.693359 L 58 42.800781 C 58 48.023586 54.927658 52.441752 51.095703 55.916016 C 47.42838 59.241015 43.199554 61.57015 40.558594 62.861328 C 37.926025 61.574654 33.700762 59.248399 30.033203 55.923828 C 29.283269 55.244027 28.576945 54.516865 27.902344 53.765625 C 28.157425 53.433381 28.188632 52.96817 27.939453 52.599609 C 27.656253 52.188512 27.120031 52.071147 26.677734 52.287109 C 25.367628 50.573976 24.309411 48.710471 23.705078 46.6875 C 24.026817 46.348363 24.100868 45.833984 23.820312 45.439453 C 23.697176 45.256734 23.519002 45.144007 23.328125 45.074219 C 23.199999 44.333696 23.125 43.577403 23.125 42.800781 L 23.125 19.693359 C 29.393915 18.673241 36.878952 16.927396 40.5625 16.025391 z M 56.171875 22.394531 C 55.920625 22.347031 55.649922 22.395781 55.419922 22.550781 C 54.969922 22.870781 54.849156 23.489453 55.160156 23.939453 C 55.359156 24.229453 55.670234 24.380859 55.990234 24.380859 C 56.180234 24.380859 56.380781 24.319219 56.550781 24.199219 C 57.010781 23.889219 57.121547 23.270547 56.810547 22.810547 C 56.655547 22.585547 56.423125 22.442031 56.171875 22.394531 z M 52.871094 24.65625 C 52.619844 24.61 52.349141 24.660312 52.119141 24.820312 C 51.669141 25.130312 51.549375 25.750937 51.859375 26.210938 C 52.060375 26.490938 52.369453 26.640625 52.689453 26.640625 C 52.879453 26.640625 53.079766 26.580703 53.259766 26.470703 C 53.709766 26.150703 53.829766 25.530313 53.509766 25.070312 C 53.354766 24.845313 53.122344 24.7025 52.871094 24.65625 z M 31 25 L 28 29 L 31 33 L 34 29 L 31 25 z M 49.572266 26.921875 C 49.322391 26.875625 49.055078 26.925078 48.830078 27.080078 C 48.370078 27.390078 48.250547 28.010703 48.560547 28.470703 C 48.760547 28.750703 49.068625 28.900391 49.390625 28.900391 C 49.590625 28.900391 49.780938 28.850469 49.960938 28.730469 C 50.410938 28.410469 50.530938 27.789844 50.210938 27.339844 C 50.055437 27.109844 49.822141 26.968125 49.572266 26.921875 z M 46.273438 29.181641 C 46.022187 29.135391 45.75575 29.184844 45.53125 29.339844 C 45.07025 29.649844 44.950531 30.270469 45.269531 30.730469 C 45.459531 31.010469 45.770797 31.160156 46.091797 31.160156 C 46.291797 31.160156 46.479156 31.110234 46.660156 30.990234 C 47.109156 30.680234 47.231875 30.049609 46.921875 29.599609 C 46.761375 29.369609 46.524688 29.227891 46.273438 29.181641 z M 42.974609 31.445312 C 42.723234 31.397813 42.455469 31.444609 42.230469 31.599609 C 41.770469 31.919609 41.650703 32.540234 41.970703 32.990234 C 42.160703 33.270234 42.479016 33.429688 42.791016 33.429688 C 42.991016 33.429688 43.189375 33.37 43.359375 33.25 C 43.809375 32.94 43.931094 32.319375 43.621094 31.859375 C 43.460594 31.634375 43.225984 31.492812 42.974609 31.445312 z M 56.992188 31.832031 C 56.739937 31.785781 56.470234 31.835234 56.240234 31.990234 C 55.790234 32.300234 55.670234 32.930859 55.990234 33.380859 C 56.180234 33.660859 56.489594 33.810547 56.808594 33.810547 C 57.008594 33.810547 57.198906 33.760625 57.378906 33.640625 C 57.828906 33.330625 57.949672 32.71 57.638672 32.25 C 57.478672 32.02 57.244438 31.878281 56.992188 31.832031 z M 39.677734 33.705078 C 39.425234 33.657578 39.154688 33.704375 38.929688 33.859375 C 38.469687 34.179375 38.349922 34.8 38.669922 35.25 C 38.858922 35.54 39.18 35.689453 39.5 35.689453 C 39.69 35.689453 39.890547 35.629531 40.060547 35.519531 C 40.510547 35.199531 40.631312 34.579141 40.320312 34.119141 C 40.165312 33.894141 39.930234 33.752578 39.677734 33.705078 z M 53.691406 34.091797 C 53.438906 34.045547 53.169453 34.095 52.939453 34.25 C 52.490453 34.56 52.370453 35.190625 52.689453 35.640625 C 52.880453 35.920625 53.189766 36.080078 53.509766 36.080078 C 53.709766 36.080078 53.897125 36.020391 54.078125 35.900391 C 54.528125 35.590391 54.649844 34.969766 54.339844 34.509766 C 54.179844 34.279766 53.943906 34.138047 53.691406 34.091797 z M 36.376953 35.966797 C 36.124453 35.919297 35.855859 35.970859 35.630859 36.130859 C 35.170859 36.440859 35.058141 37.059531 35.369141 37.519531 C 35.559141 37.799531 35.879219 37.949219 36.199219 37.949219 C 36.389219 37.949219 36.589766 37.889297 36.759766 37.779297 C 37.219766 37.459297 37.330531 36.840625 37.019531 36.390625 C 36.864531 36.160625 36.629453 36.014297 36.376953 35.966797 z M 50.390625 36.355469 C 50.13925 36.307969 49.870625 36.354766 49.640625 36.509766 L 49.650391 36.509766 C 49.190391 36.819766 49.070625 37.450391 49.390625 37.900391 C 49.580625 38.180391 49.890937 38.339844 50.210938 38.339844 C 50.411937 38.339844 50.599531 38.280156 50.769531 38.160156 L 50.78125 38.160156 C 51.23025 37.850156 51.35025 37.229531 51.03125 36.769531 C 50.87575 36.544531 50.642 36.402969 50.390625 36.355469 z M 33.082031 38.230469 C 32.830781 38.184219 32.560078 38.235625 32.330078 38.390625 C 31.870078 38.700625 31.758359 39.319297 32.068359 39.779297 C 32.269359 40.059297 32.579437 40.210938 32.898438 40.210938 C 33.089437 40.210938 33.290937 40.159062 33.460938 40.039062 C 33.920938 39.719062 34.031703 39.100391 33.720703 38.650391 C 33.565703 38.420391 33.333281 38.276719 33.082031 38.230469 z M 47.09375 38.615234 C 46.842375 38.567734 46.574609 38.614531 46.349609 38.769531 C 45.889609 39.079531 45.769844 39.710156 46.089844 40.160156 C 46.279844 40.450156 46.589156 40.599609 46.910156 40.599609 C 47.109156 40.599609 47.300469 40.539922 47.480469 40.419922 C 47.930469 40.109922 48.050234 39.489297 47.740234 39.029297 C 47.579734 38.804297 47.345125 38.662734 47.09375 38.615234 z M 29.78125 40.494141 C 29.530125 40.446641 29.26125 40.495391 29.03125 40.650391 C 28.58125 40.960391 28.459531 41.579062 28.769531 42.039062 C 28.969531 42.319063 29.279609 42.480469 29.599609 42.480469 C 29.790609 42.480469 29.990156 42.420781 30.160156 42.300781 C 30.620156 41.990781 30.731875 41.370156 30.421875 40.910156 C 30.266375 40.685156 30.032375 40.541641 29.78125 40.494141 z M 43.792969 40.875 C 43.541719 40.8275 43.275781 40.874297 43.050781 41.029297 C 42.590781 41.349297 42.478063 41.969922 42.789062 42.419922 C 42.978062 42.709922 43.299375 42.859375 43.609375 42.859375 C 43.809375 42.859375 43.999688 42.799453 44.179688 42.689453 C 44.629687 42.369453 44.750453 41.749063 44.439453 41.289062 C 44.279453 41.064063 44.044219 40.9225 43.792969 40.875 z M 26.097656 42.755859 C 25.969984 42.781172 25.845469 42.832656 25.730469 42.910156 C 25.281469 43.230156 25.160703 43.850781 25.470703 44.300781 C 25.670703 44.590781 25.978781 44.740234 26.300781 44.740234 C 26.490781 44.740234 26.690094 44.680547 26.871094 44.560547 C 27.320094 44.250547 27.440094 43.629922 27.121094 43.169922 C 26.887844 42.832422 26.480672 42.679922 26.097656 42.755859 z M 40.494141 43.136719 C 40.243016 43.089219 39.975 43.140781 39.75 43.300781 C 39.29 43.610781 39.179234 44.229453 39.490234 44.689453 C 39.680234 44.969453 40.000547 45.119141 40.310547 45.119141 C 40.510547 45.119141 40.700859 45.059219 40.880859 44.949219 C 41.330859 44.629219 41.451625 44.010547 41.140625 43.560547 C 40.980125 43.330547 40.745266 43.184219 40.494141 43.136719 z M 50 44 L 47 48 L 50 52 L 53 48 L 50 44 z M 37.193359 45.398438 C 36.942109 45.350938 36.673719 45.400547 36.449219 45.560547 C 35.989219 45.870547 35.879453 46.489219 36.189453 46.949219 C 36.380453 47.229219 36.700531 47.380859 37.019531 47.380859 C 37.210531 47.380859 37.410078 47.330937 37.580078 47.210938 C 38.030078 46.900938 38.149844 46.270313 37.839844 45.820312 C 37.679344 45.590312 37.444609 45.445937 37.193359 45.398438 z M 33.898438 47.662109 C 33.645812 47.615859 33.375391 47.665312 33.150391 47.820312 C 32.690391 48.130312 32.580625 48.750937 32.890625 49.210938 C 33.080625 49.490938 33.399703 49.640625 33.720703 49.640625 C 33.911703 49.640625 34.11025 49.590703 34.28125 49.470703 C 34.73025 49.160703 34.851016 48.530078 34.541016 48.080078 C 34.385516 47.850078 34.151063 47.708359 33.898438 47.662109 z M 30.601562 49.921875 C 30.350188 49.875625 30.079609 49.925078 29.849609 50.080078 C 29.389609 50.390078 29.279844 51.010703 29.589844 51.470703 C 29.779844 51.750703 30.099156 51.910156 30.410156 51.910156 C 30.609156 51.910156 30.810469 51.850469 30.980469 51.730469 C 31.440469 51.420469 31.550234 50.789844 31.240234 50.339844 C 31.084734 50.109844 30.852937 49.968125 30.601562 49.921875 z"/></svg>