<svg fill="#000000" xmlns="http://www.w3.org/2000/svg"  viewBox="0 0 80 80" width="80px" height="80px"><path d="M 28.96875 8 C 25.393452 8 22.144571 9.4522146 19.798828 11.796875 L 19.798828 11.798828 C 16.086755 15.511938 16 20.104832 16 20.96875 L 16 32.871094 L 16 37.126953 C 15.448117 37.255727 14.901502 37.492899 14.408203 37.90625 C 12.855526 39.207534 12.85978 41.294237 13.134766 42.933594 C 13.409751 44.57295 14.001991 45.960165 14.132812 46.261719 C 15.431367 49.254867 17.686014 50.815389 19 51.552734 L 19 53.103516 C 19 63.527918 27.471075 72 37.894531 72 L 42.103516 72 C 52.527918 72 61 63.527918 61 53.103516 L 61 51.525391 C 62.284774 50.824743 64.574549 49.358281 65.917969 46.261719 C 66.04879 45.960165 66.64103 44.57295 66.916016 42.933594 C 67.191001 41.294237 67.195255 39.207534 65.642578 37.90625 C 65.133982 37.480082 64.569052 37.242968 64 37.117188 L 64 32.871094 L 64 20.96875 C 64 13.818256 58.181744 8 51.03125 8 L 28.96875 8 z M 28.96875 10 L 51.03125 10 C 57.100756 10 62 14.899244 62 20.96875 L 62 32.871094 L 62 37.074219 C 61.925308 37.084677 61.841475 37.087508 61.769531 37.099609 C 61.365938 37.167495 61.316958 37.238735 61 37.333984 L 61 27.576172 L 61 25 L 61 24.714844 C 61 21.018497 57.981503 18 54.285156 18 L 51.423828 18 L 25.714844 18 C 22.018497 18 19 21.018497 19 24.714844 L 19 37.255859 C 18.775244 37.198145 18.538307 37.142847 18.28125 37.099609 C 18.19351 37.084852 18.091732 37.082525 18 37.070312 L 18 32.871094 L 18 20.96875 C 18 20.238668 18.07296 16.353734 21.212891 13.212891 C 23.199147 11.227551 25.934048 10 28.96875 10 z M 28.414062 20 L 51.423828 20 L 54.285156 20 C 56.90081 20 59 22.09919 59 24.714844 L 59 25 L 59 27.576172 L 59 28 C 58.45 28 58 28.45 58 29 C 58 29.55 58.45 30 59 30 L 59 41 L 61 41 L 61 39.404297 C 61.309763 39.28555 61.539401 39.166823 62.101562 39.072266 C 62.959888 38.927892 63.822616 38.991326 64.357422 39.439453 C 65.046745 40.017169 65.169874 41.253122 64.943359 42.603516 C 64.716845 43.953909 64.18721 45.224351 64.082031 45.466797 C 62.903618 48.183023 60.70241 49.490801 59.710938 50 L 59 50 L 59 53.103516 C 59 62.447114 51.447114 70 42.103516 70 L 37.894531 70 C 28.551988 70 21 62.447114 21 53.103516 L 21 51 L 21 50 L 20.310547 50 C 19.298082 49.473981 17.130224 48.143978 15.96875 45.466797 C 15.863571 45.224351 15.333937 43.953909 15.107422 42.603516 C 14.880907 41.253122 15.004036 40.017169 15.693359 39.439453 C 16.228165 38.991323 17.090893 38.927892 17.949219 39.072266 C 18.342299 39.138383 18.705713 39.243818 19 39.341797 L 19 41 L 21 41 L 21 30 C 21.55 30 22 29.55 22 29 C 22 28.45 21.55 28 21 28 L 21 24.714844 C 21 22.139388 23.038199 20.074881 25.597656 20.011719 L 30.085938 24.5 L 28.292969 26.292969 L 29.707031 27.707031 L 31.5 25.914062 L 34.085938 28.5 L 32.292969 30.292969 L 33.707031 31.707031 L 35.5 29.914062 L 38.292969 32.707031 L 39.707031 31.292969 L 36.914062 28.5 L 38.707031 26.707031 L 37.292969 25.292969 L 35.5 27.085938 L 32.914062 24.5 L 34.707031 22.707031 L 33.292969 21.292969 L 31.5 23.085938 L 28.414062 20 z M 25 28 C 24.45 28 24 28.45 24 29 C 24 29.55 24.45 30 25 30 C 25.55 30 26 29.55 26 29 C 26 28.45 25.55 28 25 28 z M 43 28 C 42.45 28 42 28.45 42 29 C 42 29.55 42.45 30 43 30 C 43.55 30 44 29.55 44 29 C 44 28.45 43.55 28 43 28 z M 47 28 C 46.45 28 46 28.45 46 29 C 46 29.55 46.45 30 47 30 C 47.55 30 48 29.55 48 29 C 48 28.45 47.55 28 47 28 z M 51 28 C 50.45 28 50 28.45 50 29 C 50 29.55 50.45 30 51 30 C 51.55 30 52 29.55 52 29 C 52 28.45 51.55 28 51 28 z M 55 28 C 54.45 28 54 28.45 54 29 C 54 29.55 54.45 30 55 30 C 55.55 30 56 29.55 56 29 C 56 28.45 55.55 28 55 28 z M 25 43 C 25 45.743 27.483 48 30.5 48 C 33.517 48 36 45.743 36 43 L 25 43 z M 44 43 C 44 45.743 46.483 48 49.5 48 C 52.517 48 55 45.743 55 43 L 44 43 z M 32 56 C 31.45 56 31 56.45 31 57 C 31 57.55 31.45 58 32 58 C 32.55 58 33 57.55 33 57 C 33 56.45 32.55 56 32 56 z M 36 56 C 35.45 56 35 56.45 35 57 C 35 57.55 35.45 58 36 58 C 36.55 58 37 57.55 37 57 C 37 56.45 36.55 56 36 56 z M 40 56 C 39.45 56 39 56.45 39 57 C 39 57.55 39.45 58 40 58 C 40.55 58 41 57.55 41 57 C 41 56.45 40.55 56 40 56 z M 44 56 C 43.45 56 43 56.45 43 57 C 43 57.55 43.45 58 44 58 C 44.55 58 45 57.55 45 57 C 45 56.45 44.55 56 44 56 z M 48 56 C 47.45 56 47 56.45 47 57 C 47 57.55 47.45 58 48 58 C 48.55 58 49 57.55 49 57 C 49 56.45 48.55 56 48 56 z"/></svg>