<?xml version="1.0"?><svg fill="#000000" xmlns="http://www.w3.org/2000/svg"  viewBox="0 0 80 80" width="80px" height="80px">    <path d="M 24 9 C 12.42 9 3 18.42 3 30 C 3 32.598 3.7676875 35.292 5.0546875 38 L 7.2675781 38 C 5.8505781 35.267 5 32.565 5 30 C 5 19.523 13.523 11 24 11 C 30.025 11 35.564219 13.783719 39.199219 18.636719 L 40 19.703125 L 40.800781 18.636719 C 44.435781 13.783719 49.975 11 56 11 C 66.477 11 75 19.523 75 30 C 75 45.496 44.437 65.927547 40 68.810547 C 36.831 66.752547 20.366359 55.76 11.193359 44 L 8.6933594 44 C 18.666359 57.655 38.357797 70.149656 39.466797 70.847656 L 40 71.181641 L 40.53125 70.847656 C 42.02025 69.911656 77 47.724 77 30 C 77 18.42 67.58 9 56 9 C 49.767 9 44.005 11.692641 40 16.431641 C 35.995 11.692641 30.233 9 24 9 z M 24 14 A 1 1 0 0 0 23 15 A 1 1 0 0 0 24 16 A 1 1 0 0 0 25 15 A 1 1 0 0 0 24 14 z M 56 14 A 1 1 0 0 0 55 15 A 1 1 0 0 0 56 16 A 1 1 0 0 0 57 15 A 1 1 0 0 0 56 14 z M 20.117188 14.511719 A 1 1 0 0 0 19.117188 15.511719 A 1 1 0 0 0 20.117188 16.511719 A 1 1 0 0 0 21.117188 15.511719 A 1 1 0 0 0 20.117188 14.511719 z M 27.880859 14.511719 A 1 1 0 0 0 26.880859 15.511719 A 1 1 0 0 0 27.880859 16.511719 A 1 1 0 0 0 28.880859 15.511719 A 1 1 0 0 0 27.880859 14.511719 z M 52.115234 14.511719 A 1 1 0 0 0 51.115234 15.511719 A 1 1 0 0 0 52.115234 16.511719 A 1 1 0 0 0 53.115234 15.511719 A 1 1 0 0 0 52.115234 14.511719 z M 59.880859 14.513672 A 1 1 0 0 0 58.880859 15.513672 A 1 1 0 0 0 59.880859 16.513672 A 1 1 0 0 0 60.880859 15.513672 A 1 1 0 0 0 59.880859 14.513672 z M 16.5 16.009766 A 1 1 0 0 0 15.5 17.009766 A 1 1 0 0 0 16.5 18.009766 A 1 1 0 0 0 17.5 17.009766 A 1 1 0 0 0 16.5 16.009766 z M 48.498047 16.009766 A 1 1 0 0 0 47.498047 17.009766 A 1 1 0 0 0 48.498047 18.009766 A 1 1 0 0 0 49.498047 17.009766 A 1 1 0 0 0 48.498047 16.009766 z M 31.5 16.011719 A 1 1 0 0 0 30.5 17.011719 A 1 1 0 0 0 31.5 18.011719 A 1 1 0 0 0 32.5 17.011719 A 1 1 0 0 0 31.5 16.011719 z M 63.5 16.011719 A 1 1 0 0 0 62.5 17.011719 A 1 1 0 0 0 63.5 18.011719 A 1 1 0 0 0 64.5 17.011719 A 1 1 0 0 0 63.5 16.011719 z M 13.392578 18.392578 A 1 1 0 0 0 12.392578 19.392578 A 1 1 0 0 0 13.392578 20.392578 A 1 1 0 0 0 14.392578 19.392578 A 1 1 0 0 0 13.392578 18.392578 z M 34.605469 18.392578 A 1 1 0 0 0 33.605469 19.392578 A 1 1 0 0 0 34.605469 20.392578 A 1 1 0 0 0 35.605469 19.392578 A 1 1 0 0 0 34.605469 18.392578 z M 66.605469 18.392578 A 1 1 0 0 0 65.605469 19.392578 A 1 1 0 0 0 66.605469 20.392578 A 1 1 0 0 0 67.605469 19.392578 A 1 1 0 0 0 66.605469 18.392578 z M 45.392578 18.394531 A 1 1 0 0 0 44.392578 19.394531 A 1 1 0 0 0 45.392578 20.394531 A 1 1 0 0 0 46.392578 19.394531 A 1 1 0 0 0 45.392578 18.394531 z M 11.009766 21.5 A 1 1 0 0 0 10.009766 22.5 A 1 1 0 0 0 11.009766 23.5 A 1 1 0 0 0 12.009766 22.5 A 1 1 0 0 0 11.009766 21.5 z M 36.988281 21.5 A 1 1 0 0 0 35.988281 22.5 A 1 1 0 0 0 36.988281 23.5 A 1 1 0 0 0 37.988281 22.5 A 1 1 0 0 0 36.988281 21.5 z M 68.988281 21.5 A 1 1 0 0 0 67.988281 22.5 A 1 1 0 0 0 68.988281 23.5 A 1 1 0 0 0 69.988281 22.5 A 1 1 0 0 0 68.988281 21.5 z M 43.009766 21.501953 A 1 1 0 0 0 42.009766 22.501953 A 1 1 0 0 0 43.009766 23.501953 A 1 1 0 0 0 44.009766 22.501953 A 1 1 0 0 0 43.009766 21.501953 z M 27.039062 24 A 1.0001 1.0001 0 0 0 26.9375 24.001953 A 1.0001 1.0001 0 0 0 26.027344 24.767578 L 21.712891 42.890625 L 18.914062 36.59375 A 1.0001 1.0001 0 0 0 17.199219 36.400391 L 14.5 40 L 4 40 A 1.0001 1.0001 0 1 0 4 42 L 15 42 A 1.0001 1.0001 0 0 0 15.800781 41.599609 L 17.777344 38.962891 L 21.085938 46.40625 A 1.0001 1.0001 0 0 0 22.972656 46.232422 L 26.720703 30.486328 L 30.007812 55.132812 A 1.0001 1.0001 0 0 0 31.962891 55.267578 L 36.085938 40.423828 L 38.050781 46.316406 A 1.0001 1.0001 0 0 0 39.927734 46.371094 L 41.677734 42 L 44.271484 42 A 2 2 0 0 0 46 43 A 2 2 0 0 0 48 41 A 2 2 0 0 0 46 39 A 2 2 0 0 0 44.269531 40 L 41 40 A 1.0001 1.0001 0 0 0 40.072266 40.628906 L 39.085938 43.09375 L 36.949219 36.683594 A 1.0001 1.0001 0 0 0 35.037109 36.732422 L 31.345703 50.021484 L 27.992188 24.867188 A 1.0001 1.0001 0 0 0 27.039062 24 z M 39.998047 25 A 1 1 0 0 0 38.998047 26 A 1 1 0 0 0 39.998047 27 A 1 1 0 0 0 40.998047 26 A 1 1 0 0 0 39.998047 25 z M 9.5117188 25.117188 A 1 1 0 0 0 8.5117188 26.117188 A 1 1 0 0 0 9.5117188 27.117188 A 1 1 0 0 0 10.511719 26.117188 A 1 1 0 0 0 9.5117188 25.117188 z M 70.486328 25.119141 A 1 1 0 0 0 69.486328 26.119141 A 1 1 0 0 0 70.486328 27.119141 A 1 1 0 0 0 71.486328 26.119141 A 1 1 0 0 0 70.486328 25.119141 z M 9 29 A 1 1 0 0 0 8 30 A 1 1 0 0 0 9 31 A 1 1 0 0 0 10 30 A 1 1 0 0 0 9 29 z M 71 29 A 1 1 0 0 0 70 30 A 1 1 0 0 0 71 31 A 1 1 0 0 0 72 30 A 1 1 0 0 0 71 29 z M 70.486328 32.882812 A 1 1 0 0 0 69.486328 33.882812 A 1 1 0 0 0 70.486328 34.882812 A 1 1 0 0 0 71.486328 33.882812 A 1 1 0 0 0 70.486328 32.882812 z M 68.988281 36.501953 A 1 1 0 0 0 67.988281 37.501953 A 1 1 0 0 0 68.988281 38.501953 A 1 1 0 0 0 69.988281 37.501953 A 1 1 0 0 0 68.988281 36.501953 z"/></svg>