<svg fill="#000000" xmlns="http://www.w3.org/2000/svg"  viewBox="0 0 80 80" width="80px" height="80px"><path d="M 51.052734 6.015625 L 46.509766 18.023438 L 34.953125 12.162109 L 37.332031 17.353516 L 37.359375 17.416016 L 40.324219 23.886719 L 33.916016 25.996094 A 1.0001 1.0001 0 0 0 33.681641 26.052734 C 32.681641 26.388734 31.681072 26.723784 30.681641 27.058594 L 28.044922 27.941406 L 38.949219 32.136719 L 29.255859 41.917969 A 1.0001 1.0001 0 0 0 29.251953 41.921875 L 7.1074219 64.068359 L 7.0898438 64.087891 C 5.4962712 65.858386 5.4732409 68.57285 7.1269531 70.226562 L 8.6855469 71.785156 L 8.7050781 71.802734 C 10.475574 73.396307 13.191991 73.421295 14.845703 71.767578 L 36.978516 49.632812 L 39.927734 46.683594 L 46.367188 40.244141 L 49.931641 50.933594 L 52.087891 45.429688 A 1.0001 1.0001 0 0 0 52.113281 45.365234 L 54.621094 38.964844 L 60.480469 41.894531 L 65.992188 44.650391 L 63.326172 38.658203 A 1.0001 1.0001 0 0 0 63.298828 38.59375 L 60.806641 32.984375 L 67.304688 30.90625 L 72.982422 29.087891 L 67.832031 27.068359 L 60.976562 24.382812 L 63.990234 18.519531 A 1.0001 1.0001 0 0 0 64.023438 18.457031 L 66.837891 12.988281 L 61.658203 15.291016 A 1.0001 1.0001 0 0 0 61.59375 15.318359 L 55.113281 18.199219 L 53.275391 12.683594 L 51.052734 6.015625 z M 50.933594 11.982422 L 51.376953 13.316406 L 53.912109 20.921875 L 62.40625 17.146484 L 62.462891 17.121094 L 62.279297 17.480469 A 1.0001 1.0001 0 0 0 62.246094 17.542969 L 58.185547 25.4375 L 67.015625 28.898438 L 66.695312 29 L 58.074219 31.759766 L 61.445312 39.341797 A 1.0001 1.0001 0 0 0 61.472656 39.40625 L 61.900391 40.369141 L 61.375 40.105469 L 54.683594 36.761719 A 1.0001 1.0001 0 0 0 53.714844 36.644531 A 1.0001 1.0001 0 0 0 53.099609 37.365234 L 50.251953 44.634766 L 50.082031 45.066406 L 48 38.814453 A 1.0002562 1.0002562 0 0 0 47.9375 38.673828 L 52.669922 33.941406 C 54.323634 32.287694 54.298647 29.57323 52.705078 27.802734 L 52.673828 27.767578 L 50.957031 26.193359 L 50.988281 26.224609 C 50.099719 25.336048 48.962188 24.949219 47.898438 24.949219 C 46.835479 24.949219 45.69984 25.335317 44.810547 26.224609 L 44.808594 26.224609 L 40.488281 30.583984 L 33.976562 28.080078 L 41.3125 25.666016 L 43.076172 25.087891 L 39.177734 16.583984 L 39.15625 16.537109 L 47.591797 20.814453 L 50.933594 11.982422 z M 20.28125 12.558594 C 19.73025 12.619594 19.330625 13.109156 19.390625 13.660156 C 19.450625 14.180156 19.879859 14.560547 20.380859 14.560547 C 20.420859 14.560547 20.460234 14.560781 20.490234 14.550781 C 21.040234 14.490781 21.440859 13.999219 21.380859 13.449219 C 21.319859 12.898219 20.83125 12.498594 20.28125 12.558594 z M 24.519531 12.638672 L 24.519531 12.648438 C 23.969531 12.568438 23.458672 12.950234 23.388672 13.490234 C 23.308672 14.040234 23.688516 14.539141 24.228516 14.619141 C 24.279516 14.629141 24.330859 14.639672 24.380859 14.638672 C 24.870859 14.638672 25.290375 14.279297 25.359375 13.779297 C 25.439375 13.228297 25.069531 12.718672 24.519531 12.638672 z M 16.542969 13.478516 C 16.412375 13.472812 16.278688 13.491563 16.148438 13.539062 C 15.629437 13.728063 15.369359 14.309078 15.568359 14.830078 C 15.719359 15.229078 16.1 15.478516 16.5 15.478516 C 16.62 15.478516 16.740375 15.460156 16.859375 15.410156 C 17.370375 15.220156 17.629453 14.640859 17.439453 14.130859 C 17.297703 13.740109 16.93475 13.495625 16.542969 13.478516 z M 28.210938 13.666016 C 27.822812 13.671641 27.456328 13.906562 27.298828 14.289062 C 27.098828 14.809063 27.339375 15.389609 27.859375 15.599609 L 27.859375 15.589844 C 27.979375 15.639844 28.108516 15.669922 28.228516 15.669922 C 28.629516 15.669922 29.000156 15.429063 29.160156 15.039062 C 29.359156 14.529063 29.109609 13.939234 28.599609 13.740234 C 28.472109 13.687734 28.340312 13.664141 28.210938 13.666016 z M 13.146484 15.351562 C 12.893859 15.306687 12.623437 15.360031 12.398438 15.519531 C 11.949438 15.830531 11.838437 16.460156 12.148438 16.910156 C 12.349438 17.189156 12.660469 17.339844 12.980469 17.339844 C 13.170469 17.339844 13.370781 17.280156 13.550781 17.160156 C 14.000781 16.839156 14.108063 16.219531 13.789062 15.769531 C 13.633563 15.539531 13.399109 15.396438 13.146484 15.351562 z M 9.9316406 18.001953 C 9.6765156 18.019453 9.4295 18.134844 9.25 18.339844 C 8.88 18.759844 8.9298437 19.39 9.3398438 19.75 C 9.5298438 19.92 9.76 20 10 20 C 10.28 20 10.56 19.880156 10.75 19.660156 C 11.109 19.240156 11.069156 18.609 10.660156 18.25 C 10.450156 18.065 10.186766 17.984453 9.9316406 18.001953 z M 27.339844 19.660156 C 26.790844 19.670156 26.349375 20.129687 26.359375 20.679688 C 26.370375 21.219688 26.819375 21.660156 27.359375 21.660156 L 27.380859 21.660156 C 27.929859 21.649156 28.370375 21.188672 28.359375 20.638672 C 28.349375 20.089672 27.899844 19.649156 27.339844 19.660156 z M 23.542969 20.220703 C 23.414531 20.203516 23.280938 20.2125 23.148438 20.25 C 22.619438 20.39 22.299453 20.940703 22.439453 21.470703 C 22.560453 21.920703 22.969203 22.209984 23.408203 22.208984 C 23.488203 22.208984 23.579922 22.200688 23.669922 22.179688 C 24.199922 22.030687 24.518906 21.489219 24.378906 20.949219 C 24.266406 20.551719 23.928281 20.272266 23.542969 20.220703 z M 19.597656 21.732422 C 19.468594 21.748234 19.340703 21.789625 19.220703 21.859375 C 18.741703 22.129375 18.579609 22.741703 18.849609 23.220703 C 19.029609 23.540703 19.370703 23.720703 19.720703 23.720703 C 19.890703 23.720703 20.060938 23.679844 20.210938 23.589844 C 20.690938 23.319844 20.859844 22.710469 20.589844 22.230469 C 20.379844 21.871219 19.984844 21.684984 19.597656 21.732422 z M 16.546875 24.148438 C 16.290625 24.148438 16.034844 24.244453 15.839844 24.439453 C 15.450844 24.829453 15.450609 25.469609 15.849609 25.849609 C 16.039609 26.049609 16.300781 26.149391 16.550781 26.150391 C 16.810781 26.150391 17.059766 26.049609 17.259766 25.849609 C 17.649766 25.460609 17.649766 24.819453 17.259766 24.439453 C 17.059766 24.244453 16.803125 24.148438 16.546875 24.148438 z M 47.898438 26.949219 C 47.935888 26.949219 47.970883 26.95569 48.007812 26.957031 C 48.007137 26.972017 48 26.984855 48 27 C 48 27.55 48.45 28 49 28 C 49.259874 28 49.493573 27.894477 49.671875 27.730469 L 51.222656 29.150391 C 52.143204 30.181544 52.12173 31.661476 51.255859 32.527344 L 49.578125 34.205078 C 49.412872 34.084335 49.219145 34 49 34 C 48.45 34 48 34.45 48 35 C 48 35.219145 48.084335 35.412872 48.205078 35.578125 L 38.513672 45.269531 L 33.609375 40.365234 L 36.273438 37.677734 C 36.456308 37.873788 36.712395 38 37 38 C 37.55 38 38 37.55 38 37 C 38 36.709874 37.870934 36.452632 37.671875 36.269531 L 40.259766 33.65625 C 40.443319 33.863237 40.703281 34 41 34 C 41.55 34 42 33.55 42 33 C 42 32.700369 41.860911 32.437589 41.650391 32.253906 L 44.244141 29.636719 C 44.427955 29.854592 44.694356 30 45 30 C 45.55 30 46 29.55 46 29 C 46 28.691255 45.8506 28.424043 45.628906 28.240234 L 46.224609 27.638672 C 46.737317 27.125965 47.279395 26.949219 47.898438 26.949219 z M 14.263672 27.345703 C 13.877422 27.309094 13.484063 27.500125 13.289062 27.859375 C 13.018063 28.349375 13.200453 28.950703 13.689453 29.220703 C 13.840453 29.300703 14.000156 29.340797 14.160156 29.341797 C 14.519156 29.341797 14.858063 29.150312 15.039062 28.820312 C 15.309062 28.331312 15.130625 27.730937 14.640625 27.460938 C 14.520625 27.395937 14.392422 27.357906 14.263672 27.345703 z M 49 30 C 48.45 30 48 30.45 48 31 C 48 31.55 48.45 32 49 32 C 49.55 32 50 31.55 50 31 C 50 30.45 49.55 30 49 30 z M 12.59375 31.091797 C 12.21125 31.162109 11.890781 31.454375 11.800781 31.859375 C 11.680781 32.399375 12.020547 32.930781 12.560547 33.050781 C 12.630547 33.069781 12.699531 33.080078 12.769531 33.080078 C 13.228531 33.080078 13.649 32.759062 13.75 32.289062 C 13.87 31.749063 13.530234 31.219609 12.990234 31.099609 C 12.855234 31.069609 12.72125 31.068359 12.59375 31.091797 z M 45 32 C 44.45 32 44 32.45 44 33 C 44 33.55 44.45 34 45 34 C 45.55 34 46 33.55 46 33 C 46 32.45 45.55 32 45 32 z M 12.390625 35.050781 C 11.840625 35.069781 11.398922 35.530078 11.419922 36.080078 C 11.429922 36.620078 11.880875 37.050781 12.421875 37.050781 L 12.451172 37.050781 C 13.001172 37.031781 13.431875 36.569531 13.421875 36.019531 L 13.410156 36.019531 C 13.399156 35.469531 12.940625 35.030781 12.390625 35.050781 z M 41 36 C 40.45 36 40 36.45 40 37 C 40 37.55 40.45 38 41 38 C 41.55 38 42 37.55 42 37 C 42 36.45 41.55 36 41 36 z M 45 36 C 44.45 36 44 36.45 44 37 C 44 37.55 44.45 38 45 38 C 45.55 38 46 37.55 46 37 C 46 36.45 45.55 36 45 36 z M 69.890625 38.001953 C 69.636875 38.029328 69.395703 38.153641 69.220703 38.369141 C 68.870703 38.799141 68.938141 39.428297 69.369141 39.779297 C 69.559141 39.929297 69.78 40 70 40 C 70.29 40 70.579297 39.870859 70.779297 39.630859 C 71.119297 39.190859 71.060859 38.570703 70.630859 38.220703 C 70.410859 38.045703 70.144375 37.974578 69.890625 38.001953 z M 13.117188 39.007812 C 12.987813 38.992578 12.853203 39.001562 12.720703 39.039062 C 12.189703 39.188062 11.889062 39.749297 12.039062 40.279297 C 12.159062 40.709297 12.56 41 13 41 C 13.09 41 13.179297 40.990938 13.279297 40.960938 C 13.809297 40.810937 14.109937 40.260703 13.960938 39.720703 C 13.848438 39.322453 13.505313 39.053516 13.117188 39.007812 z M 37 40 C 36.45 40 36 40.45 36 41 C 36 41.55 36.45 42 37 42 C 37.55 42 38 41.55 38 41 C 38 40.45 37.55 40 37 40 z M 41 40 C 40.45 40 40 40.45 40 41 C 40 41.55 40.45 42 41 42 C 41.55 42 42 41.55 42 41 C 42 40.45 41.55 40 41 40 z M 72.904297 40.90625 C 72.651922 40.86525 72.384656 40.920078 72.160156 41.080078 C 71.710156 41.399078 71.609688 42.029516 71.929688 42.478516 C 72.129688 42.749516 72.439 42.889672 72.75 42.888672 C 72.95 42.888672 73.149078 42.829219 73.330078 42.699219 C 73.780078 42.378219 73.878594 41.758594 73.558594 41.308594 C 73.393594 41.083594 73.156672 40.94725 72.904297 40.90625 z M 32.208984 41.794922 L 37.099609 46.683594 L 35.564453 48.21875 A 1.0001 1.0001 0 0 0 35.5625 48.220703 L 13.431641 70.353516 C 12.563353 71.221803 11.076426 71.244834 10.044922 70.316406 L 8.5410156 68.8125 C 7.6727281 67.944212 7.6496976 66.457285 8.578125 65.425781 L 30.677734 43.324219 L 32.208984 41.794922 z M 74.652344 44.425781 C 74.522766 44.417656 74.390016 44.435469 74.259766 44.480469 C 73.740766 44.670469 73.468437 45.239766 73.648438 45.759766 C 73.799437 46.169766 74.180609 46.419922 74.599609 46.419922 C 74.709609 46.419922 74.819688 46.409141 74.929688 46.369141 C 75.449688 46.179141 75.719063 45.609844 75.539062 45.089844 C 75.396562 44.699844 75.041078 44.450156 74.652344 44.425781 z M 61.009766 47 C 60.879453 46.997594 60.746641 47.018609 60.619141 47.068359 C 60.108141 47.279359 59.869359 47.870859 60.068359 48.380859 C 60.228359 48.770859 60.609 49 61 49 C 61.13 49 61.250859 48.978687 61.380859 48.929688 C 61.890859 48.719688 62.129688 48.129141 61.929688 47.619141 C 61.772188 47.235891 61.400703 47.007219 61.009766 47 z M 75.330078 48.330078 C 74.769078 48.370078 74.358437 48.838437 74.398438 49.398438 C 74.429438 49.929438 74.870625 50.330078 75.390625 50.330078 L 75.460938 50.330078 C 76.010938 50.290078 76.430625 49.819531 76.390625 49.269531 C 76.350625 48.710531 75.880078 48.300078 75.330078 48.330078 z M 61.919922 50.849609 C 61.379922 50.938609 61.009609 51.46 61.099609 52 L 61.099609 52.009766 C 61.179609 52.489766 61.608844 52.839844 62.089844 52.839844 C 62.139844 52.839844 62.2 52.840078 62.25 52.830078 C 62.799 52.730078 63.159359 52.219687 63.068359 51.679688 C 62.979359 51.129688 62.469922 50.759609 61.919922 50.849609 z M 75.330078 52.330078 C 74.790078 52.230078 74.269156 52.580859 74.160156 53.130859 C 74.060156 53.670859 74.420937 54.190781 74.960938 54.300781 C 75.020938 54.310781 75.080391 54.310547 75.150391 54.310547 C 75.620391 54.310547 76.040859 53.979 76.130859 53.5 C 76.229859 52.96 75.880078 52.430078 75.330078 52.330078 z M 62.359375 54.830078 C 61.810375 54.790078 61.329062 55.209766 61.289062 55.759766 C 61.249063 56.308766 61.670703 56.790078 62.220703 56.830078 L 62.289062 56.830078 C 62.809063 56.830078 63.249063 56.419438 63.289062 55.898438 C 63.318062 55.339438 62.910375 54.870078 62.359375 54.830078 z M 61.453125 58.75 C 61.063922 58.788016 60.717344 59.049453 60.589844 59.439453 C 60.428844 59.970453 60.719234 60.529219 61.240234 60.699219 C 61.340234 60.728219 61.450781 60.75 61.550781 60.75 C 61.970781 60.75 62.359 60.480781 62.5 60.050781 C 62.67 59.519781 62.379609 58.959063 61.849609 58.789062 C 61.716859 58.748812 61.582859 58.737328 61.453125 58.75 z M 60.03125 62.382812 C 59.643219 62.324688 59.246047 62.497109 59.029297 62.849609 C 58.739297 63.319609 58.889141 63.938516 59.369141 64.228516 C 59.529141 64.329516 59.710859 64.369141 59.880859 64.369141 C 60.219859 64.369141 60.550234 64.199438 60.740234 63.898438 C 61.030234 63.418437 60.880156 62.809531 60.410156 62.519531 C 60.289906 62.447031 60.160594 62.402187 60.03125 62.382812 z M 57.417969 65.533203 C 57.162969 65.538203 56.910703 65.639844 56.720703 65.839844 C 56.340703 66.228844 56.35 66.87 56.75 67.25 C 56.939 67.439 57.189453 67.53025 57.439453 67.53125 C 57.700453 67.53125 57.960156 67.430703 58.160156 67.220703 C 58.540156 66.820703 58.530859 66.190547 58.130859 65.810547 C 57.930859 65.620547 57.672969 65.528203 57.417969 65.533203 z M 54.574219 68.138672 C 54.323094 68.093672 54.055078 68.143828 53.830078 68.298828 C 53.370078 68.608828 53.258359 69.240453 53.568359 69.689453 C 53.769359 69.970453 54.080391 70.119141 54.400391 70.119141 C 54.590391 70.119141 54.790703 70.069453 54.970703 69.939453 C 55.420703 69.629453 55.531703 69.008828 55.220703 68.548828 C 55.060203 68.323828 54.825344 68.183672 54.574219 68.138672 z"/></svg>