<svg fill="#000000" xmlns="http://www.w3.org/2000/svg"  viewBox="0 0 80 80" width="80px" height="80px"><path d="M 40.5 8 C 25.922638 8 14.087682 19.920477 14.003906 34.617188 A 1.0001 1.0001 0 0 0 14 34.943359 L 14 39.068359 C 14 41.127905 14.204063 43.164444 14.572266 45.158203 C 14.169165 45.449498 12.647514 46.638456 11.148438 49.123047 C 9.4159391 51.994512 7.7265625 56.57536 7.7265625 63.408203 A 1.0001 1.0001 0 0 0 8.7265625 64.408203 C 9.9764917 64.408203 11.103558 64.070989 12.109375 63.507812 C 12.623219 66.447525 14.814453 68.431641 14.814453 68.431641 A 1.0001 1.0001 0 0 0 16.0625 68.533203 C 16.0625 68.533203 17.117818 67.805703 18.085938 66.337891 C 19.054057 64.870078 20 62.59947 20 59.464844 C 20 59.214843 19.975797 58.979891 19.964844 58.736328 C 20.820022 60.087106 21.742427 61.371145 22.720703 62.574219 C 27.808989 68.83174 34.363503 73 40.5 73 C 46.636497 73 53.191011 68.83174 58.279297 62.574219 C 60.66955 59.63471 62.731812 56.212813 64.253906 52.5 A 1.0001 1.0001 0 0 0 64.314453 52.347656 C 65.995123 48.198445 67 43.690002 67 39.068359 L 67 34.773438 C 67 20.004708 55.129238 8 40.5 8 z M 40.5 10 C 54.036762 10 65 21.074166 65 34.773438 L 65 39.068359 C 65 43.373185 64.060624 47.612079 62.484375 51.527344 C 61.272645 52.915341 59.169185 55.124763 56.226562 57.179688 A 1.0007591 1.0007591 0 1 0 57.373047 58.820312 C 58.239469 58.215263 59.02426 57.601812 59.751953 56.994141 C 58.82776 58.524615 57.81464 59.974393 56.726562 61.3125 C 51.900348 67.247729 45.705503 71 40.5 71 C 35.294497 71 29.099651 67.247729 24.273438 61.3125 C 19.447223 55.377271 16 47.338762 16 39.068359 L 16 35.050781 C 16.702489 33.855031 18.281924 31.341614 20.896484 28.703125 A 1.0001 1.0001 0 0 0 20.162109 26.990234 A 1.0001 1.0001 0 0 0 19.476562 27.296875 C 18.161533 28.623939 17.121884 29.908472 16.275391 31.050781 C 18.048804 19.122645 28.213725 10 40.5 10 z M 37.886719 18.693359 L 37.085938 19.09375 L 36.927734 19.976562 L 37.539062 20.630859 L 37.886719 20.693359 L 38.6875 20.291016 L 38.845703 19.410156 L 38.234375 18.755859 L 37.886719 18.693359 z M 41.882812 18.742188 L 41.082031 19.142578 L 40.923828 20.025391 L 41.535156 20.679688 L 41.882812 20.742188 L 42.683594 20.339844 L 42.841797 19.458984 L 42.230469 18.804688 L 41.882812 18.742188 z M 33.931641 19.255859 L 33.128906 19.65625 L 32.972656 20.539062 L 33.583984 21.193359 L 33.931641 21.255859 L 34.732422 20.853516 L 34.890625 19.972656 L 34.277344 19.318359 L 33.931641 19.255859 z M 30.107422 20.414062 L 29.306641 20.814453 L 29.148438 21.697266 L 29.761719 22.351562 L 30.107422 22.414062 L 30.908203 22.011719 L 31.066406 21.130859 L 30.455078 20.476562 L 30.107422 20.414062 z M 26.501953 22.130859 L 25.701172 22.533203 L 25.542969 23.414062 L 26.154297 24.068359 L 26.501953 24.130859 L 27.302734 23.730469 L 27.460938 22.847656 L 26.847656 22.193359 L 26.501953 22.130859 z M 23.181641 24.355469 L 22.380859 24.755859 L 22.222656 25.638672 L 22.835938 26.292969 L 23.181641 26.355469 L 23.984375 25.953125 L 24.140625 25.072266 L 23.529297 24.417969 L 23.181641 24.355469 z M 40.5 27 C 35.211231 27 29.941573 28.420234 25.914062 30.777344 C 21.886553 33.134454 19 36.513034 19 40.462891 C 19 43.292445 20.858919 45.101063 22.90625 45.970703 C 24.953581 46.840343 27.245181 47 28.785156 47 C 31.157913 47 33.399471 46.257737 35.408203 45.560547 C 37.416935 44.863357 39.215644 44.230469 40.5 44.230469 C 41.784356 44.230469 43.583065 44.863357 45.591797 45.560547 C 47.600529 46.257737 49.842087 47 52.214844 47 C 53.754819 47 56.046419 46.840343 58.09375 45.970703 C 60.141081 45.101063 62 43.292445 62 40.462891 C 62 36.513034 59.113447 33.134454 55.085938 30.777344 C 51.058428 28.420234 45.788769 27 40.5 27 z M 40.5 29 C 45.426231 29 50.407431 30.356766 54.076172 32.503906 C 57.744913 34.651046 60 37.505747 60 40.462891 C 60 42.487336 58.927169 43.445 57.3125 44.130859 C 55.697831 44.816719 53.598868 45 52.214844 45 C 50.2696 45 48.228315 44.357232 46.248047 43.669922 C 44.267779 42.982612 42.369644 42.230469 40.5 42.230469 C 38.630356 42.230469 36.732221 42.982612 34.751953 43.669922 C 32.771685 44.357232 30.7304 45 28.785156 45 C 27.401132 45 25.302169 44.816719 23.6875 44.130859 C 22.072831 43.445 21 42.487336 21 40.462891 C 21 37.505747 23.255087 34.651046 26.923828 32.503906 C 30.592569 30.356766 35.573769 29 40.5 29 z M 27.363281 33.767578 A 1.0001 1.0001 0 0 0 27.263672 33.769531 A 1.0001 1.0001 0 0 0 27.025391 35.722656 L 30.007812 36.716797 C 29.262776 37.233874 28.771484 38.092569 28.771484 39.068359 C 28.771484 40.650359 30.054719 41.933594 31.636719 41.933594 C 33.218719 41.933594 34.5 40.650359 34.5 39.068359 C 34.5 38.748022 34.434866 38.445786 34.337891 38.158203 L 35.615234 38.583984 A 1.0001 1.0001 0 1 0 36.248047 36.6875 L 27.65625 33.824219 A 1.0001 1.0001 0 0 0 27.363281 33.767578 z M 53.162109 33.769531 A 1.0001 1.0001 0 0 0 52.796875 33.824219 L 44.207031 36.6875 A 1.0001 1.0001 0 1 0 44.839844 38.583984 L 46.115234 38.158203 C 46.018332 38.44569 45.953125 38.748148 45.953125 39.068359 C 45.953125 40.650359 47.236359 41.933594 48.818359 41.933594 C 50.400359 41.933594 51.681641 40.650359 51.681641 39.068359 C 51.681641 38.092569 51.192302 37.233874 50.447266 36.716797 L 53.429688 35.722656 A 1.0001 1.0001 0 0 0 53.162109 33.769531 z M 15.050781 47.363281 C 15.319477 48.434691 15.636124 49.489143 15.996094 50.525391 C 15.975989 53.345391 15.285996 56.407399 14.023438 58.677734 C 12.955236 60.598574 11.551981 61.852998 9.7988281 62.236328 C 9.9875218 56.441425 11.417505 52.549261 12.861328 50.15625 C 13.709794 48.749992 14.493395 47.887998 15.050781 47.363281 z M 17.423828 55.291016 C 17.734855 56.454258 18 57.888768 18 59.464844 C 18 62.202218 17.197396 64.05164 16.416016 65.236328 C 15.966069 65.918513 15.842572 65.930538 15.566406 66.181641 C 14.9294 65.401388 14 64.083895 14 62.291016 A 1.0001 1.0001 0 0 0 13.974609 62.0625 C 14.666712 61.35863 15.273338 60.544204 15.771484 59.648438 C 16.50645 58.32682 17.054069 56.837974 17.423828 55.291016 z M 53.472656 59.017578 L 52.671875 59.419922 L 52.513672 60.300781 L 53.125 60.955078 L 53.472656 61.017578 L 54.273438 60.617188 L 54.431641 59.734375 L 53.818359 59.080078 L 53.472656 59.017578 z M 49.816406 60.628906 L 49.013672 61.03125 L 48.857422 61.914062 L 49.46875 62.568359 L 49.816406 62.628906 L 50.617188 62.228516 L 50.775391 61.345703 L 50.162109 60.691406 L 49.816406 60.628906 z M 45.964844 61.695312 L 45.162109 62.095703 L 45.005859 62.978516 L 45.617188 63.632812 L 45.964844 63.695312 L 46.765625 63.292969 L 46.923828 62.410156 L 46.310547 61.755859 L 45.964844 61.695312 z M 38 62 L 37.199219 62.402344 L 37.041016 63.283203 L 37.652344 63.9375 L 38 64 L 38.800781 63.597656 L 38.958984 62.716797 L 38.347656 62.0625 L 38 62 z M 41.994141 62.144531 L 41.193359 62.544922 L 41.035156 63.427734 L 41.646484 64.082031 L 41.994141 64.144531 L 42.794922 63.742188 L 42.953125 62.861328 L 42.339844 62.207031 L 41.994141 62.144531 z"/></svg>