<svg fill="#000000" xmlns="http://www.w3.org/2000/svg"  viewBox="0 0 80 80" width="80px" height="80px"><path d="M 31.039062 7 C 21.095259 7 13 14.95949 13 24.771484 L 13 28.478516 C 12.40311 28.910282 12 29.593901 12 30.380859 L 12 42.806641 L 12.029297 42.806641 L 12.029297 43.095703 C 10.094172 44.478345 9 46.76994 9 49.306641 C 9 51.52139 9.9232635 53.528169 11.40625 54.914062 L 15.632812 59.140625 C 14.596365 60.418788 14.419564 62.296715 15.380859 63.767578 L 17.179688 66.515625 C 18.748674 69.081167 20.405673 70.752394 22.347656 71.738281 C 24.28964 72.724169 26.440913 73 28.929688 73 L 32.845703 73 C 33.971336 73 35.020636 72.632551 35.787109 71.919922 C 36.50614 71.251404 36.929078 70.281593 36.980469 69.208984 A 1.0001 1.0001 0 0 0 37 69 L 37 64 A 1.0001 1.0001 0 0 0 35.984375 62.986328 A 1.0001 1.0001 0 0 0 35 64 L 35 69 C 35 69.673374 34.780308 70.125457 34.425781 70.455078 C 34.071255 70.784699 33.54407 71 32.845703 71 L 30.191406 71 C 27.650174 71 25.548828 68.800051 25.548828 65.986328 C 25.548828 63.172404 27.648989 60.974609 30.191406 60.974609 L 33.271484 60.974609 C 35.421424 60.974609 37.148438 59.156732 37.148438 56.986328 C 37.148438 55.856732 37.99733 55 39.025391 55 L 41.949219 55 C 42.977279 55 43.826172 55.856732 43.826172 56.986328 C 43.826172 59.156732 45.553185 60.974609 47.703125 60.974609 L 50.783203 60.974609 C 53.324436 60.974609 55.427734 63.172605 55.427734 65.986328 C 55.427734 68.800252 53.32562 71 50.783203 71 L 48.152344 71 C 47.45336 71 46.926093 70.784416 46.572266 70.455078 C 46.218439 70.12574 46 69.67392 46 69 L 46 64 A 1.0001 1.0001 0 0 0 44.984375 62.986328 A 1.0001 1.0001 0 0 0 44 64 L 44 69 A 1.0001 1.0001 0 0 0 44.021484 69.210938 C 44.073201 70.282049 44.492905 71.249634 45.210938 71.917969 C 45.976861 72.630881 47.026328 73 48.152344 73 L 52.068359 73 C 54.557133 73 56.708207 72.724129 58.650391 71.738281 C 60.592575 70.752434 62.250329 69.081094 63.820312 66.515625 L 65.619141 63.767578 C 66.579615 62.296446 66.403102 60.418749 65.367188 59.140625 L 69.59375 54.912109 C 71.076737 53.526216 72 51.519437 72 49.304688 C 72 46.767986 70.905828 44.476392 68.970703 43.09375 L 68.970703 42.806641 L 69 42.806641 L 69 30.380859 C 69 29.593901 68.59689 28.910282 68 28.478516 L 68 24.771484 C 68 14.960354 59.916047 7 49.988281 7 L 39.050781 7 L 31.039062 7 z M 31.039062 9 L 39.050781 9 L 49.988281 9 C 58.850516 9 66 16.056615 66 24.771484 L 66 28 L 40.5 28 L 15 28 L 15 24.771484 C 15 24.504433 15.027725 24.244253 15.041016 23.980469 L 15.800781 23.597656 L 15.958984 22.716797 L 15.347656 22.0625 L 15.253906 22.044922 C 16.565551 14.634101 23.108325 9 31.039062 9 z M 19 22 L 18.199219 22.402344 L 18.041016 23.283203 L 18.652344 23.9375 L 19 24 L 19.800781 23.597656 L 19.958984 22.716797 L 19.347656 22.0625 L 19 22 z M 23 22 L 22.199219 22.402344 L 22.041016 23.283203 L 22.652344 23.9375 L 23 24 L 23.800781 23.597656 L 23.958984 22.716797 L 23.347656 22.0625 L 23 22 z M 27 22 L 26.199219 22.402344 L 26.041016 23.283203 L 26.652344 23.9375 L 27 24 L 27.800781 23.597656 L 27.958984 22.716797 L 27.347656 22.0625 L 27 22 z M 31 22 L 30.199219 22.402344 L 30.041016 23.283203 L 30.652344 23.9375 L 31 24 L 31.800781 23.597656 L 31.958984 22.716797 L 31.347656 22.0625 L 31 22 z M 35 22 L 34.199219 22.402344 L 34.041016 23.283203 L 34.652344 23.9375 L 35 24 L 35.800781 23.597656 L 35.958984 22.716797 L 35.347656 22.0625 L 35 22 z M 39 22 L 38.199219 22.402344 L 38.041016 23.283203 L 38.652344 23.9375 L 39 24 L 39.800781 23.597656 L 39.958984 22.716797 L 39.347656 22.0625 L 39 22 z M 43 22 L 42.199219 22.402344 L 42.041016 23.283203 L 42.652344 23.9375 L 43 24 L 43.800781 23.597656 L 43.958984 22.716797 L 43.347656 22.0625 L 43 22 z M 47 22 L 46.199219 22.402344 L 46.041016 23.283203 L 46.652344 23.9375 L 47 24 L 47.800781 23.597656 L 47.958984 22.716797 L 47.347656 22.0625 L 47 22 z M 51 22 L 50.199219 22.402344 L 50.041016 23.283203 L 50.652344 23.9375 L 51 24 L 51.800781 23.597656 L 51.958984 22.716797 L 51.347656 22.0625 L 51 22 z M 55 22 L 54.199219 22.402344 L 54.041016 23.283203 L 54.652344 23.9375 L 55 24 L 55.800781 23.597656 L 55.958984 22.716797 L 55.347656 22.0625 L 55 22 z M 59 22 L 58.199219 22.402344 L 58.041016 23.283203 L 58.652344 23.9375 L 59 24 L 59.800781 23.597656 L 59.958984 22.716797 L 59.347656 22.0625 L 59 22 z M 63 22 L 62.199219 22.402344 L 62.041016 23.283203 L 62.652344 23.9375 L 63 24 L 63.800781 23.597656 L 63.958984 22.716797 L 63.347656 22.0625 L 63 22 z M 14.447266 30 L 39.574219 30 L 39.541016 30.185547 L 40.152344 30.841797 L 40.5 30.902344 L 41.300781 30.501953 L 41.390625 30 L 66.552734 30 C 66.835255 30 67 30.185789 67 30.380859 L 67 39.658203 A 1.0001 1.0001 0 0 0 66.970703 39.90625 L 66.970703 43.566406 A 1.0001 1.0001 0 0 0 67.472656 44.431641 C 69.071802 45.352386 70 47.127496 70 49.304688 C 70 50.963938 69.309577 52.439065 68.226562 53.451172 A 1.0001 1.0001 0 0 0 68.203125 53.474609 L 63.828125 57.851562 L 46.591797 44.244141 C 45.101506 43.068552 43.308565 42.240832 41.382812 42.044922 L 41.458984 41.619141 L 40.847656 40.964844 L 40.5 40.902344 L 39.699219 41.304688 L 39.564453 42.052734 C 37.659003 42.258727 35.883787 43.078656 34.408203 44.244141 L 17.173828 57.853516 L 12.796875 53.476562 A 1.0001 1.0001 0 0 0 12.773438 53.453125 C 11.690427 52.441021 11 50.965892 11 49.306641 C 11 47.129449 11.928198 45.356292 13.527344 44.435547 A 1.0001 1.0001 0 0 0 14.029297 43.568359 L 14.029297 39.90625 A 1.0001 1.0001 0 0 0 14 39.658203 L 14 30.380859 C 14 30.185789 14.164745 30 14.447266 30 z M 40.5 32.902344 L 39.699219 33.304688 L 39.541016 34.185547 L 40.152344 34.841797 L 40.5 34.902344 L 41.300781 34.501953 L 41.458984 33.619141 L 40.847656 32.964844 L 40.5 32.902344 z M 19.347656 33 C 18.317656 33 17.669781 34.091656 18.175781 34.972656 L 21.916016 41.802734 C 22.277016 42.430734 23.082516 42.6585 23.728516 42.3125 L 35.294922 35.482422 C 36.519922 34.828422 36.046344 33 34.652344 33 L 19.347656 33 z M 46.347656 33 C 44.953656 33 44.480078 34.828422 45.705078 35.482422 L 57.271484 42.3125 C 57.916484 42.6585 58.722984 42.430734 59.083984 41.802734 L 62.824219 34.972656 C 63.331219 34.091656 62.681344 33 61.652344 33 L 46.347656 33 z M 40.5 36.902344 L 39.699219 37.304688 L 39.541016 38.185547 L 40.152344 38.841797 L 40.5 38.902344 L 41.300781 38.501953 L 41.458984 37.619141 L 40.847656 36.964844 L 40.5 36.902344 z M 40.458984 44 L 40.501953 44 L 40.542969 44 C 42.254838 44.0088 43.942329 44.701264 45.353516 45.814453 L 56.044922 54.255859 L 49.984375 51.347656 L 45.017578 48.964844 C 43.608259 48.28784 42.063929 47.935547 40.5 47.935547 C 38.936542 47.935547 37.393555 48.286925 35.982422 48.964844 L 24.957031 54.255859 L 35.648438 45.814453 C 37.056199 44.702539 38.747101 44.010186 40.458984 44 z M 15 45 L 14.199219 45.402344 L 14.041016 46.283203 L 14.652344 46.9375 L 15 47 L 15.800781 46.597656 L 15.958984 45.716797 L 15.347656 45.0625 L 15 45 z M 66 45 L 65.199219 45.402344 L 65.041016 46.283203 L 65.652344 46.9375 L 66 47 L 66.800781 46.597656 L 66.958984 45.716797 L 66.347656 45.0625 L 66 45 z M 18.037109 47.603516 L 17.236328 48.003906 L 17.078125 48.886719 L 17.689453 49.541016 L 18.037109 49.603516 L 18.837891 49.201172 L 18.996094 48.320312 L 18.384766 47.666016 L 18.037109 47.603516 z M 62.962891 47.603516 L 62.162109 48.003906 L 62.003906 48.886719 L 62.615234 49.541016 L 62.962891 49.603516 L 63.763672 49.201172 L 63.921875 48.320312 L 63.310547 47.666016 L 62.962891 47.603516 z M 40.5 49.935547 C 41.764071 49.935547 43.013663 50.220582 44.152344 50.767578 L 49.119141 53.150391 L 63.173828 59.896484 C 64.225656 60.402545 64.58552 61.689059 63.945312 62.671875 L 62.123047 65.458984 L 62.115234 65.472656 C 60.668218 67.837187 59.29191 69.168473 57.746094 69.953125 C 57.12749 70.26714 56.453068 70.479222 55.736328 70.642578 C 56.786952 69.396908 57.427734 67.763097 57.427734 65.986328 C 57.427734 62.158051 54.47597 58.974609 50.783203 58.974609 L 47.703125 58.974609 C 46.675065 58.974609 45.826172 58.115924 45.826172 56.986328 C 45.826172 54.815924 44.099159 53 41.949219 53 L 39.025391 53 C 36.875451 53 35.148437 54.815924 35.148438 56.986328 C 35.148438 58.115924 34.299545 58.974609 33.271484 58.974609 L 30.191406 58.974609 C 26.497824 58.974609 23.548828 62.158252 23.548828 65.986328 C 23.548828 67.759607 24.187885 69.390047 25.234375 70.634766 C 24.528421 70.471815 23.862406 70.263034 23.251953 69.953125 C 21.706437 69.168512 20.330778 67.837115 18.884766 65.472656 L 18.876953 65.458984 L 17.054688 62.673828 L 17.054688 62.671875 C 16.413273 61.688233 16.771151 60.402389 17.826172 59.896484 L 36.847656 50.767578 C 37.988523 50.219497 39.235458 49.935547 40.5 49.935547 z M 21.074219 50.207031 L 20.273438 50.607422 L 20.115234 51.490234 L 20.726562 52.144531 L 21.074219 52.207031 L 21.875 51.804688 L 22.033203 50.923828 L 21.421875 50.267578 L 21.074219 50.207031 z M 59.925781 50.207031 L 59.125 50.607422 L 58.966797 51.490234 L 59.578125 52.144531 L 59.925781 52.207031 L 60.726562 51.804688 L 60.884766 50.923828 L 60.273438 50.267578 L 59.925781 50.207031 z M 38.984375 60.986328 A 1.0001 1.0001 0 0 0 38 62 L 38 70 A 1.0001 1.0001 0 1 0 40 70 L 40 62 A 1.0001 1.0001 0 0 0 38.984375 60.986328 z M 41.984375 60.986328 A 1.0001 1.0001 0 0 0 41 62 L 41 70 A 1.0001 1.0001 0 1 0 43 70 L 43 62 A 1.0001 1.0001 0 0 0 41.984375 60.986328 z M 30.5 64 A 2.5 2.5 0 0 0 30.5 69 A 2.5 2.5 0 0 0 30.5 64 z M 50.5 64 A 2.5 2.5 0 0 0 50.5 69 A 2.5 2.5 0 0 0 50.5 64 z"/></svg>